<svg width="20" height="20" viewBox="0 0 20 20" fill="none" xmlns="http://www.w3.org/2000/svg">
<path fill-rule="evenodd" clip-rule="evenodd" d="M10.8336 2.49996C10.8336 2.03972 10.4605 1.66663 10.0003 1.66663C9.54004 1.66663 9.16695 2.03972 9.16695 2.49996V2.97568C6.34018 3.3799 4.16695 5.81015 4.16695 8.74905L4.16695 12.0827C4.16695 12.0827 4.16696 12.0826 4.16695 12.0827C4.16687 12.0843 4.1663 12.0955 4.16269 12.1173C4.15835 12.1436 4.15065 12.1793 4.13794 12.2252C4.11216 12.3183 4.07114 12.4342 4.01384 12.5712C3.89896 12.8459 3.73699 13.1622 3.55786 13.4813C3.22107 14.0812 3.05131 14.7961 3.17876 15.476C3.31316 16.193 3.77465 16.8182 4.56283 17.1183C5.26692 17.3864 6.20414 17.6315 7.44183 17.7775C7.47128 17.803 7.50611 17.8322 7.54611 17.8642C7.67135 17.9644 7.85028 18.0943 8.07642 18.2235C8.52522 18.48 9.1888 18.75 10.0003 18.75C10.8118 18.75 11.4753 18.48 11.9241 18.2235C12.1503 18.0943 12.3292 17.9644 12.4545 17.8642C12.4945 17.8322 12.5293 17.803 12.5587 17.7775C13.7964 17.6315 14.7336 17.3864 15.4377 17.1183C16.2259 16.8182 16.6874 16.193 16.8218 15.476C16.9493 14.7961 16.7795 14.0812 16.4427 13.4813C16.2636 13.1622 16.1016 12.8459 15.9867 12.5712C15.9294 12.4342 15.8884 12.3183 15.8626 12.2252C15.8499 12.1793 15.8422 12.1436 15.8379 12.1173C15.8343 12.0955 15.8337 12.0845 15.8336 12.0829C15.8336 12.0828 15.8336 12.0829 15.8336 12.0829L15.8336 12.0759V8.74944C15.8336 5.81062 13.6604 3.37997 10.8336 2.97569V2.49996ZM5.83362 8.74905C5.83362 6.44806 7.6989 4.58329 10.0003 4.58329C12.3016 4.58329 14.1669 6.44837 14.1669 8.74944V12.0833C14.1669 12.4691 14.3115 12.8852 14.4491 13.2142C14.5986 13.5717 14.7945 13.95 14.9894 14.2971C15.1789 14.6347 15.224 14.9536 15.1837 15.1689C15.1503 15.3471 15.0612 15.4783 14.8447 15.5607C13.9489 15.9018 12.4369 16.25 10.0003 16.25C7.56368 16.25 6.05162 15.9018 5.1559 15.5607C4.93935 15.4783 4.85029 15.3471 4.81689 15.1689C4.77653 14.9536 4.82171 14.6347 5.01119 14.2971C5.20606 13.95 5.40197 13.5717 5.55146 13.2142C5.68907 12.8852 5.83362 12.4691 5.83362 12.0833V8.74905Z" fill="#E4E7EC"/>
</svg>
