<svg xmlns="http://www.w3.org/2000/svg" width="16" height="16" viewBox="0 0 16 16" fill="none">
    <path d="M6.33308 1.16666C6.05597 1.16666 5.80775 1.33808 5.70962 1.59722L5.55656 2.00141C5.22843 1.96862 4.92612 1.9359 4.68139 1.90842C4.49845 1.88788 4.34807 1.87031 4.24361 1.85791L4.12311 1.84344L4.08219 1.83844C3.71679 1.7932 3.38338 2.05266 3.33813 2.41806C3.29288 2.78346 3.55241 3.11635 3.91781 3.1616L3.96234 3.16705L4.08633 3.18193C4.19322 3.19463 4.34647 3.21253 4.53262 3.23343C4.90459 3.2752 5.40946 3.32911 5.93915 3.37745C6.65367 3.44266 7.43689 3.49999 7.99974 3.49999C8.5626 3.49999 9.34581 3.44266 10.0603 3.37745C10.59 3.32911 11.0949 3.2752 11.4669 3.23343C11.653 3.21253 11.8063 3.19463 11.9132 3.18193L12.0371 3.16705L12.0816 3.16161C12.447 3.11636 12.7066 2.78346 12.6614 2.41806C12.6161 2.05266 12.2832 1.79313 11.9178 1.83838L11.8764 1.84344L11.7559 1.85791C11.6514 1.87031 11.501 1.88788 11.3181 1.90842C11.0734 1.9359 10.7711 1.96862 10.4429 2.00141L10.2899 1.59722C10.1917 1.33808 9.94352 1.16666 9.66641 1.16666H6.33308Z" fill="#1D2739"/>
    <path d="M7.33308 7.83332C7.33308 7.46513 7.0346 7.16666 6.66641 7.16666C6.29822 7.16666 5.99974 7.46513 5.99974 7.83332V11.1667C5.99974 11.5348 6.29822 11.8333 6.66641 11.8333C7.0346 11.8333 7.33308 11.5348 7.33308 11.1667V7.83332Z" fill="#1D2739"/>
    <path d="M9.33308 7.16666C9.70127 7.16666 9.99974 7.46513 9.99974 7.83332V11.1667C9.99974 11.5348 9.70127 11.8333 9.33308 11.8333C8.96489 11.8333 8.66641 11.5348 8.66641 11.1667V7.83332C8.66641 7.46513 8.96489 7.16666 9.33308 7.16666Z" fill="#1D2739"/>
    <path fill-rule="evenodd" clip-rule="evenodd" d="M12.6062 5.36703C12.6666 4.52118 11.9374 3.84308 11.1086 3.93885C10.2606 4.03686 8.95197 4.16666 7.99974 4.16666C7.04752 4.16666 5.7389 4.03686 4.89088 3.93885C4.06213 3.84308 3.33289 4.52118 3.39331 5.36703L3.96447 13.3632C4.00776 13.9693 4.45925 14.4819 5.07884 14.575C5.74324 14.6749 6.96237 14.8345 8.00051 14.8333C9.0259 14.8321 10.25 14.6732 10.9173 14.5742C11.538 14.4821 11.9917 13.9693 12.0352 13.3614L12.6062 5.36703ZM11.2617 5.26337C11.264 5.2631 11.2658 5.26326 11.2658 5.26326L11.2675 5.26367C11.269 5.26418 11.2713 5.26539 11.2736 5.26757C11.2751 5.26901 11.2763 5.27077 11.2763 5.27077L11.2762 5.27203L10.7058 13.2577C10.0454 13.3553 8.91343 13.4989 7.99897 13.5C7.0746 13.5011 5.94966 13.3572 5.29375 13.259L4.72325 5.27203L4.7232 5.27077C4.7232 5.27077 4.72434 5.26901 4.72586 5.26757C4.72816 5.26539 4.73048 5.26418 4.73196 5.26367L4.73373 5.26326C4.73373 5.26326 4.7355 5.2631 4.73781 5.26337C5.58733 5.36155 6.96337 5.49999 7.99974 5.49999C9.03611 5.49999 10.4122 5.36155 11.2617 5.26337Z" fill="#1D2739"/>
  </svg>