<svg xmlns="http://www.w3.org/2000/svg" width="20" height="20" viewBox="0 0 20 20" fill="none">
    <path fill-rule="evenodd" clip-rule="evenodd"
        d="M6.66699 0.833328C7.12723 0.833328 7.50033 1.20642 7.50033 1.66666V2.49999H12.5003V1.66666C12.5003 1.20642 12.8734 0.833328 13.3337 0.833328C13.7939 0.833328 14.167 1.20642 14.167 1.66666V2.49999H15.0003C16.8413 2.49999 18.3337 3.99238 18.3337 5.83333V15C18.3337 16.8409 16.8413 18.3333 15.0003 18.3333H5.00033C3.15938 18.3333 1.66699 16.8409 1.66699 15V5.83333C1.66699 3.99238 3.15938 2.49999 5.00033 2.49999H5.83366V1.66666C5.83366 1.20642 6.20676 0.833328 6.66699 0.833328ZM12.5003 4.16666C12.5003 4.6269 12.8734 4.99999 13.3337 4.99999C13.7939 4.99999 14.167 4.6269 14.167 4.16666H15.0003C15.9208 4.16666 16.667 4.91285 16.667 5.83333V6.24999H3.33366V5.83333C3.33366 4.91285 4.07985 4.16666 5.00033 4.16666H5.83366C5.83366 4.6269 6.20676 4.99999 6.66699 4.99999C7.12723 4.99999 7.50033 4.6269 7.50033 4.16666H12.5003ZM16.667 7.91666H3.33366V15C3.33366 15.9205 4.07985 16.6667 5.00033 16.6667H15.0003C15.9208 16.6667 16.667 15.9205 16.667 15V7.91666Z"
        fill="#344054" />
</svg>