<svg xmlns="http://www.w3.org/2000/svg" width="20" height="20" viewBox="0 0 20 20" fill="none">
    <path d="M7.91708 1.45833C7.57069 1.45833 7.26043 1.6726 7.13775 1.99654L6.94643 2.50177C6.53628 2.46079 6.15838 2.41988 5.85247 2.38554C5.6238 2.35986 5.43582 2.3379 5.30524 2.32239L5.15462 2.30431L5.10346 2.29806C4.64672 2.24151 4.22996 2.56584 4.1734 3.02258C4.11683 3.47933 4.44125 3.89545 4.898 3.95201L4.95366 3.95882L5.10864 3.97742C5.24226 3.99329 5.43382 4.01567 5.66651 4.04179C6.13148 4.094 6.76256 4.1614 7.42467 4.22183C8.31782 4.30334 9.29685 4.37499 10.0004 4.37499C10.704 4.37499 11.683 4.30334 12.5761 4.22183C13.2383 4.1614 13.8694 4.094 14.3343 4.04179C14.567 4.01567 14.7586 3.99329 14.8922 3.97742L15.0472 3.95882L15.1027 3.95203C15.5595 3.89546 15.884 3.47933 15.8274 3.02258C15.7709 2.56584 15.3548 2.24142 14.898 2.29798L14.8462 2.30431L14.6956 2.32239C14.565 2.3379 14.377 2.35986 14.1484 2.38554C13.8424 2.41988 13.4645 2.46079 13.0544 2.50177L12.8631 1.99654C12.7404 1.6726 12.4301 1.45833 12.0837 1.45833H7.91708Z" fill="#EB5017"/>
    <path d="M9.16708 9.79166C9.16708 9.33142 8.79398 8.95833 8.33375 8.95833C7.87351 8.95833 7.50041 9.33142 7.50041 9.79166V13.9583C7.50041 14.4186 7.87351 14.7917 8.33375 14.7917C8.79398 14.7917 9.16708 14.4186 9.16708 13.9583V9.79166Z" fill="#EB5017"/>
    <path d="M11.6671 8.95833C12.1273 8.95833 12.5004 9.33142 12.5004 9.79166V13.9583C12.5004 14.4186 12.1273 14.7917 11.6671 14.7917C11.2068 14.7917 10.8337 14.4186 10.8337 13.9583V9.79166C10.8337 9.33142 11.2068 8.95833 11.6671 8.95833Z" fill="#EB5017"/>
    <path fill-rule="evenodd" clip-rule="evenodd" d="M15.7585 6.70879C15.834 5.65149 14.9224 4.80386 13.8865 4.92358C12.8265 5.04608 11.1907 5.20833 10.0004 5.20833C8.81013 5.20833 7.17436 5.04608 6.11433 4.92358C5.07839 4.80386 4.16685 5.65149 4.24237 6.70879L4.95631 16.704C5.01043 17.4617 5.5748 18.1023 6.34928 18.2188C7.17979 18.3437 8.7037 18.5432 10.0014 18.5417C11.2831 18.5402 12.8132 18.3415 13.6474 18.2178C14.4232 18.1027 14.9904 17.4617 15.0447 16.7017L15.7585 6.70879ZM14.0778 6.57922C14.0807 6.57889 14.0829 6.57909 14.0829 6.57909L14.0851 6.57959C14.087 6.58023 14.0899 6.58175 14.0928 6.58447C14.0947 6.58627 14.0961 6.58847 14.0961 6.58847L14.096 6.59005L13.383 16.5721C12.5574 16.6941 11.1425 16.8737 9.99945 16.875C8.84399 16.8763 7.4378 16.6965 6.61792 16.5738L5.9048 6.59005L5.90474 6.58847C5.90474 6.58847 5.90616 6.58627 5.90806 6.58447C5.91093 6.58175 5.91384 6.58023 5.91569 6.57959L5.91789 6.57909C5.91789 6.57909 5.92011 6.57889 5.923 6.57922C6.9849 6.70195 8.70495 6.875 10.0004 6.875C11.2959 6.875 13.0159 6.70195 14.0778 6.57922Z" fill="#EB5017"/>
  </svg>