<svg xmlns="http://www.w3.org/2000/svg" width="16" height="16" viewBox="0 0 16 16" fill="none">
    <path fill-rule="evenodd" clip-rule="evenodd" d="M13.7304 1.93999C12.8326 1.04226 11.3771 1.04226 10.4794 1.93999L4.79578 7.62363C4.38779 8.03162 4.12313 8.56094 4.04153 9.13213L3.87683 10.285C3.75112 11.165 4.50537 11.9192 5.38532 11.7935L6.53824 11.6288C7.10943 11.5472 7.63874 11.2826 8.04673 10.8746L13.7304 5.19094C14.6281 4.29321 14.6281 2.83771 13.7304 1.93999ZM11.5619 2.767C11.9377 2.51082 12.4542 2.54942 12.7876 2.8828C13.1209 3.21617 13.1595 3.7327 12.9034 4.10848L11.5619 2.767ZM10.6071 3.69788L11.9725 5.06322L7.10392 9.93177C6.89993 10.1358 6.63527 10.2681 6.34968 10.3089L5.19676 10.4736L5.36146 9.32069C5.40226 9.03509 5.53459 8.77044 5.73859 8.56644L10.6071 3.69788Z" fill="#1671D9"/>
    <path d="M3.99968 1.33333C2.52692 1.33333 1.33301 2.52724 1.33301 4V12C1.33301 13.4728 2.52692 14.6667 3.99967 14.6667H11.9997C13.4724 14.6667 14.6663 13.4728 14.6663 12V8C14.6663 7.63181 14.3679 7.33333 13.9997 7.33333C13.6315 7.33333 13.333 7.63181 13.333 8V12C13.333 12.7364 12.7361 13.3333 11.9997 13.3333H3.99967C3.2633 13.3333 2.66634 12.7364 2.66634 12V4C2.66634 3.26362 3.2633 2.66666 3.99968 2.66666H5.78915C6.15734 2.66666 6.45582 2.36819 6.45582 2C6.45582 1.63181 6.15734 1.33333 5.78915 1.33333H3.99968Z" fill="#1671D9"/>
  </svg>