<svg width="250" height="250" viewBox="0 0 250 250" fill="none" xmlns="http://www.w3.org/2000/svg">
<path d="M125 204.496C172.198 204.496 210.46 189.486 210.46 170.971C210.46 152.455 172.198 137.445 125 137.445C77.8011 137.445 39.5391 152.455 39.5391 170.971C39.5391 189.486 77.8011 204.496 125 204.496Z" fill="#F9FAFB"/>
<path d="M127.81 71.6559C127.645 71.4337 127.458 71.23 127.249 71.0471C126.513 70.4036 125.518 70.0332 124.414 70.0332C124.074 70.0332 123.717 70.0702 123.356 70.1443C123.18 70.1813 123.009 70.2276 122.84 70.2786C122.821 70.2832 122.803 70.2878 122.784 70.2925C122.715 70.3156 122.645 70.3411 122.576 70.3665C122.548 70.3758 122.518 70.385 122.49 70.3966C122.377 70.4406 122.263 70.4869 122.152 70.5355C122.145 70.5378 122.138 70.5425 122.134 70.5448C121.981 70.6142 121.833 70.6906 121.687 70.7716C121.678 70.7763 121.671 70.7809 121.661 70.7855C121.627 70.8064 121.594 70.8295 121.56 70.8503C121.469 70.9059 121.379 70.9614 121.291 71.0193C121.275 71.0309 121.256 71.0401 121.24 71.0517C121.205 71.0749 121.173 71.1026 121.138 71.1281C121.067 71.1813 120.995 71.2323 120.923 71.2878C120.902 71.304 120.879 71.3202 120.856 71.3364C120.828 71.3596 120.8 71.3851 120.773 71.4082C120.705 71.4638 120.641 71.5216 120.576 71.5795C120.55 71.6026 120.525 71.6235 120.499 71.6466C120.451 71.6929 120.402 71.7392 120.356 71.7878C120.293 71.8526 120.233 71.9175 120.173 71.9823C120.157 71.9985 120.145 72.017 120.129 72.0355C120.06 72.1142 119.992 72.1976 119.928 72.2786C119.905 72.3087 119.877 72.3364 119.856 72.3665C119.849 72.3758 119.844 72.3851 119.837 72.3943C119.738 72.5263 119.645 72.6628 119.56 72.804C119.555 72.811 119.55 72.8156 119.546 72.8226C119.486 72.9221 119.428 73.0239 119.372 73.1258C119.361 73.1466 119.351 73.1698 119.34 73.1906C119.303 73.2647 119.263 73.3388 119.231 73.4128C119.222 73.4314 119.217 73.4499 119.208 73.4684C119.192 73.5077 119.175 73.5471 119.159 73.5888C119.127 73.6675 119.097 73.7462 119.069 73.8249C119.053 73.8665 119.039 73.9105 119.025 73.9522C118.997 74.0355 118.974 74.1165 118.951 74.1999C118.942 74.2392 118.93 74.2763 118.921 74.3156C118.891 74.436 118.865 74.5587 118.847 74.6813C118.793 75.0101 118.775 75.348 118.8 75.6837L118.921 77.4383L123.925 84.2601L123.805 82.5054C123.78 82.1675 123.798 81.8318 123.851 81.5031C123.87 81.3804 123.898 81.2577 123.925 81.1374C123.935 81.098 123.946 81.061 123.955 81.0216C123.979 80.9383 124.002 80.855 124.027 80.7739C124.041 80.7323 124.055 80.6883 124.071 80.6466C124.099 80.5679 124.129 80.4892 124.161 80.4105C124.178 80.3712 124.194 80.3318 124.21 80.2925C124.252 80.1999 124.296 80.1073 124.342 80.0147C124.354 79.9939 124.363 79.9707 124.374 79.9499C124.432 79.8411 124.495 79.7323 124.56 79.6258C124.645 79.4869 124.74 79.3503 124.837 79.2161C124.867 79.1767 124.898 79.1397 124.93 79.1003C124.995 79.017 125.062 78.936 125.131 78.8573C125.205 78.7739 125.28 78.6906 125.358 78.6096C125.43 78.5378 125.504 78.4707 125.578 78.4013C125.643 78.3434 125.708 78.2855 125.775 78.23C125.824 78.1883 125.874 78.1466 125.925 78.1073C125.995 78.0517 126.067 77.9985 126.141 77.9476C126.192 77.9105 126.24 77.8735 126.293 77.8388C126.381 77.7809 126.472 77.7253 126.562 77.6698C126.606 77.6443 126.648 77.6165 126.692 77.5911C126.837 77.5101 126.986 77.4337 127.138 77.3642C127.256 77.311 127.374 77.2601 127.497 77.2138C127.525 77.2022 127.555 77.1929 127.583 77.1837C127.671 77.1513 127.759 77.1235 127.849 77.0957C128.018 77.0448 128.189 76.9962 128.365 76.9614C128.726 76.8874 129.083 76.8503 129.423 76.8503C130.53 76.8503 131.525 77.2207 132.259 77.8642C132.467 78.0471 132.655 78.2485 132.819 78.473L127.81 71.6559Z" fill="#D0D5DD"/>
<path d="M123.923 84.7245C123.779 84.7245 123.638 84.6574 123.55 84.5347L118.545 77.7106C118.494 77.6389 118.462 77.5556 118.457 77.4676L118.337 75.713C118.309 75.3565 118.328 74.9815 118.388 74.6042C118.409 74.4792 118.434 74.3472 118.469 74.2037C118.476 74.1736 118.485 74.1412 118.492 74.1111L118.501 74.0764C118.527 73.9861 118.552 73.8958 118.58 73.8056C118.596 73.7593 118.612 73.713 118.629 73.6644C118.659 73.5787 118.691 73.4931 118.728 73.4074L118.737 73.3819C118.751 73.3472 118.765 73.3125 118.781 73.2778L118.804 73.2199C118.841 73.1389 118.879 73.0648 118.918 72.9884L118.934 72.956C118.943 72.9375 118.95 72.9213 118.96 72.9028C119.017 72.7917 119.08 72.6829 119.147 72.5741C119.152 72.5648 119.166 72.5463 119.172 72.537C119.254 72.4074 119.353 72.2569 119.464 72.1111C119.464 72.1088 119.473 72.0949 119.485 72.081C119.504 72.0579 119.522 72.0347 119.543 72.0116L119.564 71.9861C119.633 71.8958 119.705 71.8079 119.781 71.7222C119.8 71.6968 119.814 71.6829 119.828 71.6667C119.892 71.5926 119.96 71.5231 120.027 71.456C120.078 71.4051 120.129 71.3542 120.182 71.3056C120.203 71.287 120.223 71.2685 120.244 71.25L120.265 71.2315C120.332 71.169 120.404 71.1065 120.476 71.0463L120.501 71.0231C120.522 71.0046 120.543 70.9861 120.566 70.9676C120.585 70.9537 120.603 70.9398 120.622 70.9259C120.712 70.8542 120.791 70.7986 120.869 70.7431L120.899 70.7199C120.925 70.6991 120.95 70.6806 120.978 70.662C120.994 70.6505 121.01 70.6412 121.027 70.6296C121.126 70.5625 121.223 70.5046 121.321 70.4444L121.351 70.4259C121.376 70.4097 121.404 70.3912 121.432 70.375C121.441 70.3704 121.462 70.3588 121.471 70.3542C121.617 70.2731 121.779 70.1898 121.939 70.1157L121.96 70.1042C122.08 70.0509 122.203 70 122.325 69.9537C122.346 69.9468 122.369 69.9375 122.39 69.9306L122.455 69.9074C122.517 69.8843 122.58 69.8611 122.645 69.8426C122.666 69.8356 122.686 69.831 122.707 69.8264C122.913 69.7639 123.091 69.7176 123.265 69.6829C123.656 69.6042 124.043 69.5625 124.416 69.5625C125.608 69.5625 126.723 69.963 127.557 70.6898C127.791 70.8958 128.004 71.125 128.184 71.3727L133.189 78.1944C133.339 78.4005 133.295 78.6898 133.089 78.8426C132.883 78.9931 132.594 78.9491 132.441 78.7431V78.7407C132.3 78.5486 132.135 78.3681 131.953 78.2083C131.288 77.6273 130.39 77.3079 129.42 77.3079C129.108 77.3079 128.784 77.3426 128.455 77.4097C128.314 77.4398 128.159 77.4792 127.983 77.5324C127.899 77.5579 127.818 77.5833 127.737 77.6134L127.659 77.6412C127.547 77.6829 127.439 77.7292 127.33 77.7778C127.193 77.8403 127.054 77.9097 126.918 77.9884C126.895 78 126.874 78.0139 126.853 78.0278L126.797 78.0602C126.714 78.1111 126.631 78.162 126.55 78.2153C126.51 78.2407 126.476 78.2685 126.439 78.294L126.411 78.3148C126.344 78.3634 126.279 78.412 126.214 78.463C126.168 78.5 126.122 78.537 126.075 78.5764C126.015 78.6273 125.955 78.6806 125.895 78.7338L125.874 78.7523C125.811 78.8079 125.751 78.8657 125.691 78.9259C125.619 79 125.55 79.0764 125.483 79.1528C125.418 79.2269 125.358 79.3009 125.298 79.3773L125.26 79.4236C125.244 79.4444 125.228 79.463 125.212 79.4838C125.119 79.6088 125.034 79.7361 124.955 79.8588C124.895 79.956 124.837 80.0556 124.784 80.1551L124.754 80.2153C124.712 80.2963 124.67 80.3819 124.633 80.4653L124.589 80.5741C124.559 80.6458 124.531 80.7176 124.506 80.7894C124.492 80.8287 124.478 80.8657 124.466 80.9051C124.441 80.9815 124.42 81.0556 124.399 81.1319L124.372 81.2361C124.346 81.3449 124.323 81.456 124.304 81.5648C124.256 81.8704 124.242 82.1736 124.263 82.4607L124.383 84.2176C124.397 84.4236 124.274 84.6134 124.08 84.6829C124.029 84.7153 123.976 84.7245 123.923 84.7245ZM119.372 77.2731L123.353 82.7014L123.341 82.5394C123.314 82.1829 123.332 81.8079 123.392 81.4306C123.413 81.3056 123.439 81.1736 123.473 81.0301C123.48 81 123.49 80.9699 123.497 80.9375L123.506 80.9028C123.529 80.8125 123.557 80.7222 123.585 80.6319C123.598 80.5856 123.615 80.5394 123.633 80.4907C123.663 80.4051 123.696 80.3194 123.733 80.2338L123.744 80.206C123.758 80.1736 123.772 80.1389 123.786 80.1065C123.83 80.0046 123.879 79.9051 123.929 79.8056L123.964 79.7361C124.027 79.6181 124.094 79.5 124.166 79.3866C124.256 79.2384 124.358 79.0903 124.466 78.9444C124.49 78.9144 124.513 78.8843 124.536 78.8565L124.566 78.8194C124.635 78.7315 124.707 78.6435 124.784 78.5579C124.862 78.4676 124.943 78.3773 125.029 78.2917C125.098 78.2199 125.172 78.1528 125.247 78.0856L125.267 78.0671C125.337 78.0046 125.406 77.9421 125.478 77.8819C125.531 77.838 125.585 77.794 125.64 77.75C125.716 77.6898 125.793 77.6343 125.872 77.5787L125.899 77.5579C125.946 77.5255 125.99 77.4931 126.036 77.4606C126.131 77.3981 126.228 77.338 126.325 77.2801L126.369 77.2546C126.402 77.2361 126.432 77.2153 126.466 77.1968C126.626 77.1065 126.788 77.0255 126.948 76.9514C127.075 76.8935 127.203 76.8403 127.335 76.7894L127.427 76.7569C127.522 76.7222 127.617 76.6921 127.714 76.662C127.918 76.5995 128.101 76.5509 128.272 76.5162C129.184 76.3287 130.066 76.3657 130.867 76.6019L127.441 71.9329C127.3 71.7384 127.133 71.5602 126.95 71.4005C126.286 70.8194 125.385 70.5 124.418 70.5C124.108 70.5 123.781 70.5347 123.453 70.6018C123.309 70.6319 123.159 70.6713 122.98 70.7245C122.962 70.7292 122.943 70.7338 122.925 70.7384C122.876 70.7523 122.825 70.7708 122.774 70.7893L122.659 70.831C122.552 70.8704 122.448 70.9143 122.346 70.9606C122.191 71.0324 122.052 71.1042 121.918 71.1806C121.909 71.1852 121.888 71.1968 121.879 71.2014C121.881 71.2014 121.872 71.2083 121.86 71.2153C121.841 71.2292 121.821 71.2407 121.8 71.2523C121.716 71.3032 121.633 71.3542 121.552 71.4074C121.538 71.4167 121.522 71.4259 121.508 71.4352C121.492 71.4444 121.48 71.456 121.469 71.4653C121.45 71.4792 121.432 71.4931 121.413 71.5069C121.346 71.5556 121.279 71.6042 121.214 71.6551C121.198 71.6667 121.184 71.6782 121.168 71.6898L121.126 71.7245C121.11 71.7384 121.094 71.7546 121.075 71.7685C121.015 71.8194 120.955 71.8727 120.895 71.9259C120.879 71.9421 120.862 71.9537 120.846 71.9676L120.823 71.9884C120.779 72.0301 120.735 72.0741 120.691 72.1181C120.633 72.1759 120.578 72.2361 120.522 72.2986C120.506 72.3194 120.494 72.3333 120.48 72.3472C120.418 72.419 120.358 72.4954 120.297 72.5694C120.284 72.588 120.267 72.6065 120.254 72.6227L120.23 72.6505C120.23 72.6505 120.223 72.662 120.214 72.6736C120.119 72.8009 120.034 72.9259 119.957 73.0509C119.953 73.0579 119.946 73.0694 119.939 73.0787C119.885 73.1667 119.835 73.2569 119.786 73.3472L119.756 73.4074C119.719 73.4815 119.684 73.5463 119.656 73.6111L119.635 73.662C119.624 73.6875 119.615 73.713 119.603 73.7407L119.591 73.7685C119.561 73.8403 119.534 73.912 119.508 73.9838C119.494 74.0231 119.48 74.0602 119.469 74.0995C119.446 74.1736 119.422 74.25 119.402 74.3241L119.374 74.4282C119.348 74.537 119.325 74.6458 119.307 74.7569C119.258 75.0625 119.244 75.3657 119.265 75.6528L119.372 77.2731Z" fill="#F9FAFB"/>
<path d="M130.077 81.5328L125.073 74.711C125.019 74.6392 124.959 74.5721 124.892 74.5142C124.651 74.3059 124.332 74.1855 123.978 74.1855C123.864 74.1879 123.751 74.1994 123.633 74.2226C123.57 74.2365 123.508 74.2527 123.448 74.2712C123.429 74.2781 123.413 74.2851 123.394 74.292C123.367 74.3013 123.341 74.3129 123.316 74.3221C123.293 74.3314 123.267 74.3383 123.244 74.3499C123.202 74.3684 123.165 74.3893 123.126 74.4101C123.117 74.4147 123.107 74.4193 123.1 74.424C123.096 74.4263 123.093 74.4286 123.089 74.4309C123.043 74.4564 122.999 74.4842 122.955 74.5142C122.934 74.5281 122.913 74.5443 122.894 74.5605C122.885 74.5675 122.874 74.5768 122.864 74.5837C122.855 74.5906 122.843 74.5976 122.834 74.6045C122.795 74.6369 122.758 74.6693 122.721 74.7041C122.702 74.7203 122.686 74.7388 122.67 74.755C122.649 74.7758 122.628 74.799 122.607 74.8198C122.57 74.8592 122.536 74.9031 122.503 74.9448C122.501 74.9471 122.499 74.9517 122.496 74.9564C122.489 74.9656 122.485 74.9749 122.478 74.9842C122.452 75.0212 122.427 75.0559 122.404 75.0953C122.392 75.1138 122.383 75.1346 122.374 75.1531C122.36 75.1786 122.346 75.2041 122.332 75.2295C122.323 75.248 122.311 75.2666 122.302 75.2851C122.288 75.3175 122.276 75.3522 122.265 75.3846C122.256 75.4078 122.246 75.4309 122.237 75.4564C122.212 75.5328 122.191 75.6092 122.179 75.6879C122.163 75.7943 122.158 75.9031 122.165 76.0119L122.262 77.4425L127.267 84.2642L127.17 82.8337C127.163 82.7249 127.168 82.6161 127.184 82.5096C127.195 82.4309 127.216 82.3545 127.242 82.2781C127.249 82.255 127.26 82.2318 127.269 82.2064C127.29 82.1531 127.311 82.1022 127.337 82.0513C127.35 82.0258 127.364 82.0004 127.378 81.9749C127.411 81.917 127.445 81.8615 127.485 81.8059C127.492 81.7967 127.496 81.7874 127.503 81.7781C127.556 81.7087 127.612 81.6392 127.674 81.5767C127.735 81.5142 127.799 81.4587 127.869 81.4031C127.878 81.3962 127.89 81.3869 127.899 81.38C127.964 81.3314 128.033 81.2851 128.105 81.2434C128.114 81.2388 128.124 81.2342 128.131 81.2295C128.193 81.1971 128.256 81.167 128.323 81.1416C128.348 81.13 128.376 81.1207 128.401 81.1115C128.478 81.0837 128.556 81.0605 128.64 81.042C128.758 81.0189 128.871 81.0073 128.985 81.005C129.339 81.005 129.658 81.1254 129.899 81.3337C129.964 81.3962 130.024 81.461 130.077 81.5328Z" fill="#D0D5DD"/>
<path d="M127.264 84.7257C127.121 84.7257 126.98 84.6586 126.892 84.5359L121.887 77.7118C121.836 77.64 121.804 77.5567 121.799 77.4688L121.702 76.0382C121.692 75.8924 121.697 75.7488 121.72 75.61C121.736 75.515 121.76 75.4155 121.794 75.3067C121.804 75.2789 121.813 75.2535 121.822 75.228L121.836 75.191C121.848 75.1563 121.861 75.1215 121.878 75.0868C121.889 75.0637 121.901 75.0405 121.912 75.0174C121.931 74.9826 121.947 74.9502 121.966 74.9155C121.98 74.8877 121.991 74.8669 122.005 74.8438C122.035 74.7951 122.067 74.7488 122.1 74.7049C122.105 74.6979 122.109 74.691 122.116 74.6817C122.118 74.6771 122.123 74.6725 122.125 74.6678C122.174 74.603 122.218 74.5521 122.262 74.5012C122.287 74.4734 122.313 74.4456 122.338 74.4201C122.357 74.4016 122.378 74.3785 122.401 74.36C122.447 74.316 122.493 74.2766 122.542 74.2373C122.549 74.2326 122.572 74.2141 122.579 74.2095L122.632 74.1701C122.651 74.1563 122.672 74.14 122.692 74.1262C122.748 74.0891 122.804 74.0544 122.859 74.022C122.868 74.0174 122.882 74.0081 122.892 74.0058L122.91 73.9965C122.954 73.9734 123.003 73.9456 123.054 73.9225C123.079 73.9109 123.105 73.9016 123.13 73.8924C123.176 73.8738 123.209 73.8623 123.243 73.8507C123.267 73.8414 123.287 73.8322 123.311 73.8252C123.387 73.8021 123.463 73.7813 123.54 73.765C123.681 73.7373 123.82 73.7211 123.968 73.7188C124.436 73.7188 124.866 73.8762 125.195 74.1609C125.29 74.2442 125.373 74.3368 125.445 74.434L130.447 81.2558C130.447 81.2558 130.447 81.2581 130.449 81.2581C130.6 81.4641 130.556 81.7535 130.35 81.9062C130.144 82.0567 129.855 82.0127 129.702 81.8067C129.669 81.7627 129.632 81.7211 129.591 81.684C129.431 81.5451 129.216 81.4688 128.982 81.4688C128.899 81.4711 128.811 81.4803 128.727 81.4965C128.679 81.5058 128.625 81.522 128.551 81.5475C128.53 81.5544 128.51 81.5637 128.491 81.5706C128.442 81.5891 128.394 81.6123 128.348 81.6354C128.343 81.6377 128.324 81.647 128.32 81.6493C128.278 81.6725 128.227 81.7072 128.172 81.7465L127.864 81.3993L128.148 81.765C128.091 81.809 128.044 81.853 128 81.897C127.954 81.9456 127.91 81.9965 127.868 82.0521L127.855 82.0729C127.827 82.1123 127.801 82.1539 127.776 82.1979C127.767 82.2164 127.755 82.235 127.746 82.2558C127.727 82.2905 127.711 82.3299 127.697 82.3669L127.686 82.397C127.658 82.478 127.644 82.5313 127.637 82.5776C127.625 82.6447 127.623 82.7211 127.628 82.7975L127.725 84.228C127.739 84.434 127.616 84.6238 127.422 84.6933C127.371 84.7164 127.317 84.7257 127.264 84.7257ZM122.713 77.2743L126.702 82.7118C126.702 82.6192 126.711 82.5266 126.725 82.4363C126.741 82.3414 126.764 82.2419 126.801 82.1331C126.808 82.1076 126.82 82.0845 126.829 82.059C126.861 81.9734 126.889 81.9086 126.922 81.8438C126.938 81.809 126.956 81.7789 126.973 81.7465C127.014 81.6725 127.058 81.603 127.107 81.5336C127.114 81.5243 127.121 81.5104 127.13 81.4988C127.195 81.4109 127.269 81.3252 127.343 81.2488C127.412 81.1771 127.491 81.1076 127.581 81.0359C127.584 81.0336 127.607 81.0174 127.609 81.0151C127.706 80.9433 127.79 80.8877 127.875 80.8391C127.882 80.8345 127.903 80.8252 127.91 80.8206C127.984 80.7813 128.063 80.7442 128.146 80.7118C128.181 80.6979 128.213 80.6863 128.246 80.6748C128.357 80.6354 128.449 80.61 128.542 80.5891C128.623 80.5729 128.702 80.5613 128.785 80.5544L124.699 74.985C124.667 74.941 124.63 74.8993 124.586 74.8623C124.426 74.7257 124.211 74.647 123.977 74.647C123.894 74.6493 123.806 74.6586 123.723 74.6748C123.679 74.684 123.632 74.6956 123.588 74.7095C123.579 74.7141 123.563 74.7211 123.549 74.7257C123.528 74.7326 123.507 74.7419 123.489 74.7488L123.442 74.7674C123.403 74.7836 123.373 74.7998 123.345 74.816C123.341 74.8183 123.322 74.8276 123.317 74.8299C123.315 74.8322 123.311 74.8345 123.308 74.8345C123.278 74.853 123.246 74.8715 123.218 74.8924L123.172 74.9271L122.864 74.5799L123.151 74.9433C123.146 74.9479 123.128 74.9618 123.123 74.9641C123.098 74.985 123.07 75.0104 123.042 75.0359L123.003 75.0752C122.984 75.0938 122.968 75.11 122.954 75.1262C122.929 75.1539 122.905 75.1817 122.882 75.2118C122.878 75.2164 122.875 75.2234 122.873 75.2257C122.868 75.2303 122.861 75.2442 122.857 75.2488C122.838 75.2766 122.817 75.3021 122.799 75.3322L122.778 75.3738C122.767 75.3947 122.757 75.4109 122.748 75.4294L122.725 75.4734C122.723 75.4803 122.718 75.4896 122.716 75.5012L122.69 75.5729C122.662 75.6563 122.648 75.7072 122.642 75.7558C122.63 75.8229 122.628 75.8993 122.632 75.9757L122.713 77.2743Z" fill="#F9FAFB"/>
<path d="M131.843 81.8739C131.836 81.7605 131.819 81.6494 131.799 81.5406C131.799 81.536 131.796 81.5313 131.794 81.5267C131.769 81.4063 131.738 81.2883 131.697 81.1748C131.662 81.0799 131.623 80.9873 131.576 80.8971C131.574 80.8901 131.569 80.8855 131.565 80.8785C131.553 80.8554 131.537 80.8322 131.525 80.8091C131.498 80.7605 131.47 80.7096 131.44 80.6633C131.421 80.6355 131.4 80.6054 131.38 80.5776L126.375 73.7559C126.428 73.8299 126.475 73.9086 126.521 73.9873C126.535 74.0105 126.549 74.0313 126.56 74.0568C126.611 74.1517 126.655 74.2512 126.692 74.3531C126.734 74.4665 126.764 74.5822 126.789 74.7049C126.812 74.816 126.829 74.9318 126.836 75.0498L126.998 77.4387L132.002 84.2605L131.843 81.8739Z" fill="#D0D5DD"/>
<path d="M132.005 84.7252C131.862 84.7252 131.721 84.6581 131.633 84.5354L126.628 77.7113C126.577 77.6396 126.545 77.5562 126.54 77.4683L126.378 75.0794C126.371 74.9845 126.359 74.8919 126.339 74.7947C126.318 74.6928 126.292 74.5956 126.26 74.5076C126.232 74.4312 126.197 74.3525 126.153 74.2692L126.121 74.216C126.084 74.1511 126.045 74.084 126.005 74.0285C125.855 73.8224 125.899 73.5331 126.105 73.3803C126.311 73.2298 126.6 73.2738 126.753 73.4798C126.753 73.4798 126.753 73.4822 126.755 73.4822L131.758 80.3039C131.781 80.3363 131.806 80.3711 131.829 80.4058C131.862 80.4544 131.89 80.503 131.917 80.5539L131.934 80.5817C131.952 80.6118 131.964 80.6326 131.975 80.6511C131.982 80.6627 131.989 80.6766 131.994 80.6835C132.049 80.79 132.098 80.9011 132.14 81.0146C132.186 81.1419 132.223 81.2761 132.253 81.4173C132.258 81.4312 132.26 81.4451 132.262 81.4567C132.285 81.5771 132.304 81.709 132.311 81.841L132.473 84.2298C132.487 84.4359 132.364 84.6257 132.17 84.6951C132.112 84.716 132.059 84.7252 132.005 84.7252ZM127.454 77.2738L131.436 82.7021L131.383 81.9058C131.378 81.8178 131.366 81.7322 131.35 81.6488C131.348 81.6442 131.348 81.6373 131.346 81.6326C131.322 81.5192 131.297 81.4243 131.265 81.3363C131.239 81.2646 131.207 81.1928 131.172 81.1234C131.167 81.1141 131.16 81.1025 131.156 81.0956L131.105 81.0099C131.089 80.9822 131.072 80.9521 131.054 80.9243C131.038 80.9011 131.022 80.878 131.005 80.8548L127.357 75.8803L127.454 77.2738Z" fill="#F9FAFB"/>
<path d="M98.3801 77.4395H117.364L117.829 84.2589L96.5977 88.6084L98.3801 77.4395Z" fill="#F7F9FC"/>
<path d="M96.5971 89.0718C96.479 89.0718 96.3633 89.0255 96.2776 88.9445C96.1688 88.8404 96.1156 88.6876 96.141 88.5371L97.9235 77.3658C97.9582 77.1413 98.1526 76.9746 98.3818 76.9746H117.366C117.609 76.9746 117.81 77.1621 117.829 77.4052L118.294 84.2246C118.31 84.4561 118.153 84.6621 117.926 84.7107L96.6943 89.0626C96.6596 89.0695 96.6272 89.0718 96.5971 89.0718ZM98.773 77.9029L97.1596 88.0232L117.34 83.8867L116.933 77.9029H98.773Z" fill="#F9FAFB"/>
<path d="M117.829 84.2598L122.834 91.0815L101.602 95.4334L96.5977 88.6093L117.829 84.2598Z" fill="#98A2B3"/>
<path d="M101.602 95.8971C101.456 95.8971 101.317 95.8277 101.229 95.7073L96.2242 88.8833C96.1316 88.7559 96.1084 88.5893 96.1663 88.4434C96.2242 88.2953 96.3515 88.1888 96.5043 88.1564L117.736 83.8046C117.912 83.7675 118.095 83.8393 118.201 83.9851L123.206 90.8092C123.298 90.9365 123.321 91.1032 123.264 91.249C123.206 91.3972 123.078 91.5036 122.926 91.536L101.694 95.8879C101.664 95.8948 101.632 95.8971 101.602 95.8971ZM97.3978 88.9203L101.801 94.9226L122.034 90.7768L117.632 84.7745L97.3978 88.9203Z" fill="#F9FAFB"/>
<path d="M121.158 99.5679C120.672 99.1419 120.357 98.5401 120.308 97.8179L119.361 83.9429L121.125 83.5817L121.604 90.591C121.628 90.9336 121.903 91.1674 122.253 91.1674C122.306 91.1674 122.361 91.1628 122.419 91.1489C122.843 91.0609 123.165 90.672 123.137 90.2762L122.658 83.2669L125.803 82.6211L126.753 96.4961C126.766 96.7206 126.755 96.9405 126.72 97.1604C126.607 97.8665 126.246 98.5378 125.722 99.0725C125.195 99.6072 124.509 100.003 123.736 100.163C123.5 100.209 123.264 100.235 123.037 100.235C122.303 100.237 121.646 99.9938 121.158 99.5679Z" fill="#D0D5DD"/>
<path d="M123.033 100.7C122.209 100.7 121.436 100.422 120.855 99.9176L120.853 99.9153C120.251 99.3875 119.904 98.6722 119.848 97.8505L118.902 83.9755C118.885 83.744 119.043 83.538 119.27 83.4894L121.033 83.1282C121.163 83.1005 121.3 83.1329 121.406 83.2139C121.513 83.2949 121.58 83.4176 121.587 83.5519L122.066 90.5611C122.075 90.6908 122.2 90.7046 122.253 90.7046C122.277 90.7046 122.302 90.7023 122.327 90.6977C122.54 90.6537 122.686 90.457 122.677 90.3111L122.198 83.3019C122.182 83.0704 122.339 82.8644 122.566 82.8158L125.712 82.1699C125.841 82.1421 125.978 82.1745 126.084 82.2556C126.191 82.3366 126.258 82.4593 126.265 82.5935L127.214 96.4685C127.23 96.7301 127.216 96.9871 127.177 97.2371C127.052 98.0195 126.652 98.788 126.052 99.4014C125.436 100.024 124.668 100.445 123.827 100.621C123.559 100.675 123.293 100.7 123.033 100.7ZM121.462 99.2208C122.013 99.6977 122.814 99.8806 123.642 99.7139C124.3 99.5773 124.904 99.244 125.39 98.7533C125.855 98.2787 126.165 97.6884 126.26 97.0935C126.29 96.9083 126.3 96.7208 126.288 96.531L125.376 83.1884L123.147 83.6445L123.598 90.2509C123.642 90.8783 123.163 91.4732 122.513 91.6074C122.427 91.6259 122.339 91.6352 122.253 91.6352C121.649 91.6352 121.184 91.2116 121.142 90.6283L120.7 84.1468L119.853 84.3204L120.772 97.7903C120.811 98.3621 121.05 98.8574 121.462 99.2208Z" fill="#F9FAFB"/>
<path d="M118.916 77.4395H120.705L121.124 83.583L119.36 83.9441L118.916 77.4395Z" fill="#F7F9FC"/>
<path d="M119.361 84.4071C119.262 84.4071 119.162 84.3747 119.081 84.3122C118.975 84.2312 118.908 84.1085 118.901 83.9742L118.456 77.4696C118.447 77.3423 118.493 77.215 118.579 77.1224C118.667 77.0298 118.79 76.9766 118.917 76.9766H120.704C120.947 76.9766 121.148 77.1641 121.167 77.4071L121.586 83.5506C121.602 83.7821 121.445 83.9881 121.218 84.0367L119.454 84.3979C119.424 84.4048 119.394 84.4071 119.361 84.4071ZM119.412 77.9025L119.787 83.384L120.634 83.2104L120.271 77.9025H119.412Z" fill="#F9FAFB"/>
<path d="M135.347 84.7251C135.203 84.7251 135.062 84.658 134.974 84.5353L129.97 77.7112C129.919 77.6395 129.886 77.5561 129.882 77.4682L129.604 73.4034C129.597 73.2899 129.585 73.1788 129.569 73.0677L129.553 72.9635C129.541 72.8918 129.53 72.8177 129.516 72.746C129.502 72.6742 129.483 72.6047 129.465 72.5353L129.435 72.4103C129.405 72.3015 129.37 72.1927 129.331 72.0885C129.275 71.9381 129.208 71.7807 129.122 71.6094L129.092 71.5469C129.025 71.4196 128.951 71.2899 128.868 71.1649C128.819 71.0909 128.78 71.0307 128.736 70.9728C128.585 70.7668 128.629 70.4774 128.835 70.3246C128.919 70.2645 129.014 70.2344 129.108 70.2344C129.252 70.2344 129.391 70.2992 129.481 70.4242L134.486 77.2483C134.532 77.3108 134.576 77.3756 134.62 77.4404C134.627 77.452 134.646 77.4821 134.652 77.4936C134.743 77.6325 134.833 77.783 134.909 77.9311C134.919 77.945 134.926 77.9589 134.933 77.9751C134.939 77.989 134.949 78.0098 134.958 78.033C135.055 78.2251 135.136 78.4149 135.203 78.5978C135.25 78.7251 135.291 78.8547 135.328 78.9867C135.338 79.0191 135.345 79.0492 135.352 79.0816L135.361 79.1233C135.384 79.2112 135.405 79.2992 135.423 79.3918C135.423 79.3941 135.428 79.408 135.43 79.4219C135.442 79.4774 135.451 79.5353 135.458 79.5932C135.458 79.5932 135.483 79.746 135.486 79.776C135.504 79.9057 135.516 80.0376 135.525 80.1719L135.803 84.2344C135.817 84.4404 135.694 84.6302 135.5 84.6997C135.453 84.7159 135.4 84.7251 135.347 84.7251Z" fill="#D0D5DD"/>
<path d="M129.109 70.7029L134.113 77.527C134.155 77.5849 134.197 77.6427 134.236 77.7029C134.245 77.7145 134.25 77.7284 134.259 77.7399C134.347 77.8765 134.43 78.0154 134.507 78.1612C134.511 78.1705 134.516 78.1774 134.521 78.1867C134.528 78.2006 134.532 78.2168 134.542 78.233C134.627 78.4043 134.706 78.5779 134.771 78.7608C134.812 78.8765 134.849 78.9969 134.884 79.1173C134.896 79.1589 134.905 79.2006 134.914 79.2423C134.935 79.3233 134.956 79.4043 134.972 79.4876C134.974 79.4969 134.977 79.5062 134.979 79.5154C134.993 79.5849 135.002 79.6543 135.014 79.7237C135.021 79.7631 135.028 79.8001 135.032 79.8395C135.048 79.9599 135.06 80.0802 135.069 80.2029L135.347 84.2677L130.342 77.446L130.065 73.3811C130.055 73.2585 130.044 73.1358 130.028 73.0177C130.023 72.9784 130.014 72.9413 130.009 72.902C129.998 72.8233 129.984 72.7446 129.967 72.6659C129.951 72.5825 129.93 72.5015 129.91 72.4205C129.898 72.3788 129.891 72.3372 129.879 72.2978C129.845 72.1774 129.808 72.0571 129.766 71.9413C129.699 71.7585 129.623 71.5849 129.537 71.4136C129.525 71.3904 129.514 71.3673 129.502 71.3441C129.426 71.1983 129.342 71.0594 129.254 70.9228C129.206 70.8441 129.16 70.7724 129.109 70.7029ZM129.856 70.1543L129.109 70.7029L128.363 71.2515C128.403 71.3048 128.44 71.3603 128.474 71.4159C128.553 71.5386 128.623 71.652 128.68 71.7654L128.687 71.7793L128.708 71.821C128.787 71.9784 128.849 72.1196 128.896 72.2515C128.896 72.2538 128.898 72.2562 128.898 72.2562C128.93 72.3464 128.96 72.4413 128.988 72.5409C128.991 72.5524 128.993 72.564 128.998 72.5756C129.002 72.5987 129.009 72.6196 129.014 72.6427C129.032 72.7145 129.048 72.7793 129.062 72.8464C129.076 72.9089 129.085 72.9737 129.095 73.0386L129.104 73.1011C129.106 73.1126 129.109 73.1242 129.109 73.1358C129.123 73.2423 129.132 73.3418 129.139 73.439L129.417 77.5038C129.428 77.6798 129.491 77.8464 129.595 77.9876L134.599 84.8094C134.778 85.0524 135.058 85.1867 135.347 85.1867C135.454 85.1867 135.56 85.1682 135.664 85.1312C136.051 84.9899 136.298 84.6103 136.271 84.1983L135.993 80.1335C135.984 79.9969 135.97 79.8534 135.951 79.7099C135.947 79.6728 135.94 79.6381 135.935 79.6011L135.93 79.571L135.923 79.5293C135.914 79.4622 135.903 79.3927 135.889 79.3279C135.886 79.3163 135.882 79.2978 135.877 79.277C135.856 79.1821 135.835 79.0941 135.812 79.0061L135.805 78.9737C135.796 78.9344 135.787 78.8974 135.778 78.8603C135.736 78.7145 135.692 78.5733 135.643 78.439C135.641 78.4367 135.641 78.4321 135.639 78.4298C135.569 78.2376 135.486 78.0455 135.382 77.8372C135.37 77.8094 135.359 77.7816 135.345 77.7561C135.338 77.7423 135.326 77.7237 135.315 77.7029C135.234 77.5501 135.146 77.3997 135.048 77.2492C135.035 77.2261 135.021 77.2029 135.007 77.1798C134.96 77.1126 134.912 77.0432 134.863 76.9737L129.856 70.1543Z" fill="#F9FAFB"/>
<path d="M122.258 77.4395H125.448L125.802 82.6246L122.656 83.2682L122.258 77.4395Z" fill="#F7F9FC"/>
<path d="M122.657 83.7312C122.557 83.7312 122.458 83.6988 122.377 83.6363C122.27 83.5553 122.203 83.4326 122.196 83.2983L121.798 77.4696C121.789 77.3423 121.835 77.215 121.921 77.1224C122.009 77.0298 122.131 76.9766 122.259 76.9766H125.446C125.689 76.9766 125.891 77.1641 125.909 77.4071L126.263 82.5923C126.28 82.8238 126.122 83.0298 125.895 83.0784L122.749 83.7219C122.719 83.7289 122.687 83.7312 122.657 83.7312ZM122.754 77.9025L123.083 82.7104L125.312 82.2543L125.016 77.9048H122.754V77.9025Z" fill="#F9FAFB"/>
<path d="M127 77.4395H128.789L129.097 81.9487L127.333 82.3098L127 77.4395Z" fill="#F7F9FC"/>
<path d="M127.334 82.7729C127.235 82.7729 127.135 82.7405 127.054 82.678C126.948 82.5969 126.881 82.4742 126.874 82.34L126.54 77.4696C126.531 77.3423 126.577 77.215 126.663 77.1224C126.751 77.0298 126.874 76.9766 127.001 76.9766H128.79C129.033 76.9766 129.235 77.1641 129.253 77.4071L129.561 81.9164C129.577 82.1479 129.42 82.3539 129.193 82.4025L127.429 82.7636C127.397 82.7705 127.364 82.7729 127.334 82.7729ZM127.496 77.9025L127.76 81.752L128.61 81.5784L128.36 77.9048H127.496V77.9025Z" fill="#F9FAFB"/>
<path d="M130.344 77.4414H173.723L161.466 154.296H141.684L138.64 173.379L138.244 173.708H136.059C137.622 172.826 138.652 171.14 138.499 169.46L135.274 133.8H150.615C151.284 133.8 151.911 133.277 152.013 132.631C152.117 131.983 151.656 131.462 150.987 131.462H135.064L134.198 121.879H152.517C153.186 121.879 153.814 121.356 153.918 120.708C154.02 120.062 153.561 119.539 152.892 119.539H133.987L133.122 109.955H154.42C155.089 109.955 155.716 109.432 155.821 108.784C155.922 108.138 155.464 107.615 154.795 107.615H132.929C132.959 105.597 134.635 103.666 136.807 103.219C139.091 102.749 140.825 100.645 140.677 98.5155L140.645 98.0317H156.323C156.992 98.0317 157.619 97.5085 157.723 96.8604C157.825 96.2146 157.367 95.6914 156.698 95.6914H140.485L139.665 83.703C139.54 81.8581 138.047 80.5988 136.168 80.5988C135.876 80.5988 135.575 80.6289 135.27 80.6914L131.138 81.5386L130.635 81.6405L130.344 77.4414Z" fill="#F7F9FC"/>
<path d="M138.244 174.172H136.059C135.848 174.172 135.665 174.031 135.612 173.827C135.559 173.624 135.649 173.411 135.832 173.306C137.283 172.487 138.17 170.957 138.038 169.503L134.813 133.844C134.802 133.714 134.846 133.587 134.934 133.489C135.022 133.394 135.147 133.339 135.276 133.339H150.617C151.059 133.339 151.492 132.982 151.559 132.559C151.587 132.385 151.55 132.232 151.45 132.114C151.346 131.992 151.182 131.925 150.989 131.925H135.066C134.827 131.925 134.626 131.742 134.605 131.503L133.739 121.92C133.728 121.79 133.772 121.663 133.86 121.566C133.948 121.471 134.073 121.415 134.202 121.415H152.522C152.964 121.415 153.397 121.056 153.464 120.633C153.492 120.462 153.452 120.304 153.353 120.188C153.249 120.066 153.084 119.999 152.894 119.999H133.989C133.751 119.999 133.55 119.816 133.529 119.577L132.663 109.994C132.651 109.864 132.695 109.737 132.783 109.64C132.871 109.545 132.996 109.489 133.126 109.489H154.425C154.867 109.489 155.3 109.131 155.367 108.707C155.394 108.536 155.355 108.378 155.258 108.265C155.154 108.142 154.989 108.075 154.8 108.075H132.934C132.809 108.075 132.691 108.026 132.605 107.936C132.519 107.846 132.471 107.728 132.473 107.605C132.508 105.334 134.332 103.253 136.719 102.763C138.781 102.339 140.353 100.448 140.221 98.5449L140.188 98.0611C140.179 97.9338 140.225 97.8065 140.311 97.7139C140.399 97.619 140.522 97.5681 140.649 97.5681H156.327C156.769 97.5681 157.202 97.2093 157.269 96.7857C157.297 96.6144 157.258 96.457 157.161 96.3412C157.057 96.2185 156.892 96.1514 156.702 96.1514H140.489C140.246 96.1514 140.045 95.9639 140.026 95.7208L139.207 83.7324C139.1 82.1583 137.853 81.0611 136.17 81.0611C135.906 81.0611 135.635 81.0889 135.364 81.1445L130.73 82.0958C130.598 82.1236 130.464 82.0912 130.357 82.0102C130.251 81.9292 130.184 81.8065 130.177 81.6722L129.89 77.4755C129.881 77.3482 129.927 77.2208 130.013 77.1283C130.1 77.0357 130.223 76.9824 130.35 76.9824H173.73C173.867 76.9824 173.994 77.0426 174.082 77.1445C174.17 77.2463 174.209 77.3829 174.186 77.5171L161.929 154.371C161.894 154.596 161.7 154.763 161.471 154.763H142.084L139.103 173.457C139.084 173.568 139.029 173.668 138.941 173.739L138.545 174.068C138.457 174.133 138.353 174.172 138.244 174.172ZM137.438 173.246H138.077L138.212 173.135L138.394 171.982C138.147 172.438 137.823 172.867 137.438 173.246ZM135.781 134.263L138.904 168.795L141.228 154.223C141.263 153.999 141.457 153.832 141.686 153.832H161.073L173.182 77.9037H130.839L131.057 81.0773L135.172 80.2324C135.503 80.1653 135.839 80.1306 136.163 80.1306C138.32 80.1306 139.985 81.6167 140.124 83.6653L140.913 95.2232H156.693C157.154 95.2232 157.577 95.4107 157.857 95.7394C158.135 96.0634 158.249 96.4871 158.177 96.9292C158.038 97.8042 157.221 98.4917 156.32 98.4917H141.138C141.293 100.837 139.392 103.158 136.897 103.67C135.126 104.033 133.688 105.513 133.429 107.149H154.79C155.251 107.149 155.675 107.337 155.955 107.665C156.232 107.989 156.346 108.413 156.274 108.855C156.135 109.73 155.318 110.418 154.418 110.418H133.626L134.408 119.075H152.89C153.35 119.075 153.774 119.263 154.054 119.589C154.332 119.913 154.445 120.337 154.374 120.779C154.235 121.654 153.418 122.341 152.517 122.341H134.705L135.487 130.999H150.989C151.45 130.999 151.874 131.186 152.154 131.513C152.429 131.837 152.543 132.26 152.473 132.702C152.334 133.577 151.519 134.263 150.617 134.263H135.781Z" fill="#F9FAFB"/>
<path d="M156.691 95.6836C157.36 95.6836 157.821 96.2067 157.717 96.8526C157.613 97.5007 156.985 98.0239 156.316 98.0239H140.638L140.479 95.6836H156.691Z" fill="#D0D5DD"/>
<path d="M156.32 98.4885H140.641C140.398 98.4885 140.197 98.301 140.178 98.0579L140.019 95.7177C140.009 95.5904 140.056 95.463 140.141 95.3704C140.229 95.2779 140.352 95.2246 140.479 95.2246H156.69C157.151 95.2246 157.574 95.4121 157.854 95.7408C158.132 96.0649 158.246 96.4885 158.174 96.9306C158.035 97.801 157.22 98.4885 156.32 98.4885ZM141.072 97.5626H156.317C156.759 97.5626 157.192 97.2038 157.259 96.7802C157.287 96.6089 157.248 96.4515 157.151 96.3357C157.047 96.213 156.882 96.1459 156.692 96.1459H140.977L141.072 97.5626Z" fill="#D0D5DD"/>
<path d="M154.79 107.609C155.459 107.609 155.919 108.133 155.815 108.778C155.711 109.427 155.084 109.95 154.415 109.95H133.116L132.933 107.917C132.926 107.815 132.924 107.711 132.924 107.609H154.79Z" fill="#D0D5DD"/>
<path d="M154.417 110.413H133.118C132.88 110.413 132.679 110.23 132.658 109.991L132.475 107.959C132.466 107.834 132.463 107.718 132.466 107.603C132.47 107.35 132.676 107.146 132.929 107.146H154.794C155.255 107.146 155.679 107.334 155.959 107.663C156.237 107.987 156.35 108.41 156.278 108.853C156.135 109.728 155.32 110.413 154.417 110.413ZM133.54 109.487H154.417C154.859 109.487 155.292 109.128 155.359 108.704C155.387 108.533 155.348 108.376 155.25 108.26C155.146 108.137 154.982 108.07 154.792 108.07H133.415L133.54 109.487Z" fill="#D0D5DD"/>
<path d="M152.889 119.535C153.558 119.535 154.019 120.058 153.915 120.704C153.811 121.352 153.183 121.875 152.514 121.875H134.195L133.984 119.535H152.889Z" fill="#D0D5DD"/>
<path d="M152.514 122.338H134.195C133.956 122.338 133.755 122.156 133.734 121.917L133.523 119.577C133.512 119.447 133.556 119.32 133.644 119.223C133.732 119.128 133.857 119.072 133.986 119.072H152.891C153.352 119.072 153.776 119.26 154.056 119.588C154.333 119.913 154.447 120.336 154.375 120.778C154.232 121.653 153.417 122.338 152.514 122.338ZM134.618 121.413H152.514C152.956 121.413 153.389 121.054 153.456 120.63C153.484 120.459 153.445 120.301 153.345 120.186C153.241 120.063 153.077 119.996 152.887 119.996H134.491L134.618 121.413Z" fill="#D0D5DD"/>
<path d="M150.986 131.461C151.655 131.461 152.116 131.982 152.012 132.63C151.91 133.276 151.282 133.799 150.613 133.799H135.273L135.062 131.461H150.986Z" fill="#D0D5DD"/>
<path d="M150.613 134.262H135.273C135.034 134.262 134.833 134.079 134.812 133.841L134.601 131.503C134.59 131.373 134.634 131.246 134.722 131.149C134.81 131.054 134.935 130.998 135.064 130.998H150.988C151.449 130.998 151.872 131.186 152.152 131.512C152.428 131.836 152.541 132.26 152.472 132.702C152.331 133.577 151.513 134.262 150.613 134.262ZM135.696 133.336H150.613C151.055 133.336 151.488 132.98 151.555 132.556C151.583 132.382 151.546 132.23 151.446 132.111C151.342 131.989 151.178 131.922 150.986 131.922H135.569L135.696 133.336Z" fill="#D0D5DD"/>
<path d="M173.724 77.4414L178.728 84.2632L166.471 161.12L161.467 154.296L173.724 77.4414Z" fill="#E4E7EC"/>
<path d="M166.471 161.582C166.325 161.582 166.186 161.513 166.098 161.392L161.094 154.568C161.02 154.469 160.99 154.344 161.01 154.221L173.267 77.3669C173.297 77.1817 173.434 77.0336 173.615 76.9896C173.795 76.9456 173.987 77.0151 174.096 77.1655L179.101 83.9896C179.175 84.0891 179.205 84.2141 179.184 84.3368L166.927 161.191C166.897 161.376 166.76 161.524 166.58 161.568C166.543 161.578 166.508 161.582 166.471 161.582ZM161.955 154.177L166.189 159.95L178.242 84.3808L174.008 78.6077L161.955 154.177Z" fill="#F9FAFB"/>
<path d="M161.467 154.295L138.643 173.378L141.684 154.295H161.467Z" fill="#D0D5DD"/>
<path d="M138.642 173.841C138.563 173.841 138.484 173.82 138.413 173.781C138.244 173.686 138.153 173.496 138.183 173.307L141.227 154.223C141.262 153.999 141.457 153.832 141.686 153.832H161.468C161.663 153.832 161.836 153.955 161.903 154.138C161.97 154.32 161.915 154.526 161.764 154.651L138.94 173.735C138.852 173.807 138.746 173.841 138.642 173.841ZM142.079 154.758L139.292 172.23L160.19 154.758H142.079Z" fill="#F9FAFB"/>
<path d="M161.467 154.293L166.471 161.117L143.645 180.2L138.643 173.376L161.467 154.293Z" fill="#D0D5DD"/>
<path d="M143.644 180.664C143.626 180.664 143.607 180.664 143.589 180.662C143.461 180.646 143.348 180.579 143.272 180.477L138.267 173.653C138.123 173.456 138.156 173.181 138.343 173.023L161.167 153.94C161.265 153.859 161.392 153.819 161.519 153.836C161.647 153.852 161.76 153.919 161.836 154.021L166.841 160.845C166.985 161.042 166.952 161.317 166.765 161.475L143.943 180.556C143.86 180.627 143.753 180.664 143.644 180.664ZM139.272 173.454L143.728 179.528L165.841 161.039L161.385 154.965L139.272 173.454Z" fill="#F9FAFB"/>
<path d="M138.642 173.379L143.645 180.203L138.244 173.71L138.642 173.379Z" fill="#E4E7EC"/>
<path d="M143.646 180.666C143.514 180.666 143.383 180.608 143.29 180.499L137.889 174.006C137.811 173.911 137.774 173.791 137.785 173.668C137.797 173.545 137.857 173.432 137.95 173.356L138.345 173.027C138.443 172.946 138.572 172.909 138.697 172.923C138.825 172.939 138.938 173.006 139.014 173.108L144.019 179.93C144.167 180.131 144.128 180.414 143.931 180.569C143.845 180.633 143.746 180.666 143.646 180.666Z" fill="#F9FAFB"/>
<path d="M138.244 173.709L143.644 180.202L141.063 180.531L136.059 173.709H138.244Z" fill="#E4E7EC"/>
<path d="M141.063 180.995C140.917 180.995 140.778 180.925 140.69 180.805L135.685 173.981C135.581 173.839 135.567 173.654 135.646 173.497C135.725 173.342 135.884 173.242 136.058 173.242H138.243C138.38 173.242 138.512 173.302 138.6 173.409L144 179.902C144.109 180.032 144.137 180.21 144.074 180.367C144.012 180.525 143.871 180.636 143.702 180.657L141.118 180.985C141.102 180.992 141.081 180.995 141.063 180.995ZM136.972 174.173L141.276 180.038L142.75 179.851L138.028 174.173H136.972Z" fill="#F9FAFB"/>
<path d="M136.757 173.232C136.653 173.316 136.544 173.397 136.433 173.473C136.318 173.552 136.197 173.628 136.075 173.698C136.068 173.702 136.063 173.705 136.056 173.709C135.926 173.783 135.794 173.85 135.658 173.911C135.484 173.989 135.304 174.059 135.121 174.117C134.961 174.168 134.799 174.209 134.635 174.244L82.8129 184.867C82.5074 184.929 82.2065 184.959 81.9148 184.959C80.7111 184.959 79.6625 184.443 79.0352 183.584L84.0398 190.406C84.6694 191.265 85.7157 191.781 86.9194 191.781C87.2111 191.781 87.512 191.751 87.8176 191.688L139.639 181.066C139.804 181.031 139.968 180.989 140.125 180.938C140.308 180.881 140.489 180.811 140.662 180.732C140.799 180.67 140.931 180.603 141.061 180.531C141.068 180.526 141.072 180.524 141.079 180.519C141.202 180.45 141.322 180.374 141.438 180.295C141.549 180.219 141.658 180.138 141.762 180.054L136.757 173.232Z" fill="#667185"/>
<path d="M86.9189 192.244C85.5809 192.244 84.3934 191.674 83.6642 190.681L78.6596 183.857C78.5091 183.651 78.5531 183.362 78.7591 183.209C78.9652 183.059 79.2545 183.103 79.4073 183.309L79.4096 183.311C79.9628 184.061 80.8749 184.494 81.9142 184.494C82.1781 184.494 82.449 184.466 82.7198 184.411L134.542 173.788C134.69 173.758 134.838 173.718 134.981 173.672C135.146 173.619 135.31 173.556 135.467 173.485C135.59 173.429 135.711 173.367 135.829 173.302C135.956 173.23 136.067 173.161 136.171 173.089C136.271 173.019 136.37 172.948 136.465 172.869C136.565 172.79 136.69 172.753 136.815 172.769C136.94 172.786 137.053 172.853 137.13 172.955L142.134 179.776C142.28 179.975 142.245 180.253 142.053 180.411C141.94 180.503 141.822 180.591 141.701 180.674C141.574 180.762 141.442 180.846 141.31 180.92L141.289 180.931C141.148 181.01 141.002 181.084 140.854 181.151C140.664 181.237 140.465 181.313 140.266 181.376C140.09 181.431 139.912 181.478 139.731 181.515L87.9096 192.137C87.5786 192.209 87.2453 192.244 86.9189 192.244ZM80.8656 185.297L84.4119 190.133C84.9652 190.885 85.8772 191.318 86.9189 191.318C87.1828 191.318 87.4536 191.29 87.7244 191.235L139.546 180.612C139.694 180.582 139.842 180.543 139.986 180.496C140.15 180.443 140.315 180.38 140.472 180.309C140.595 180.253 140.717 180.191 140.833 180.126C140.935 180.068 141.028 180.012 141.113 179.955L136.657 173.878C136.544 173.955 136.424 174.029 136.305 174.098C136.303 174.098 136.282 174.11 136.282 174.112C136.143 174.191 135.998 174.265 135.849 174.332C135.66 174.418 135.461 174.494 135.261 174.556C135.086 174.612 134.907 174.658 134.727 174.695L82.905 185.318C82.2082 185.462 81.5022 185.452 80.8656 185.297Z" fill="#F9FAFB"/>
<path d="M138.497 169.459C138.65 171.14 137.62 172.825 136.057 173.707C135.62 173.955 135.141 174.138 134.636 174.242L82.8144 184.865C82.5089 184.927 82.2079 184.957 81.9163 184.957C80.0575 184.957 78.576 183.728 78.4209 181.911L71.282 97.7118C71.1362 95.5822 72.87 93.4734 75.1547 93.0058L96.5991 88.61L117.831 84.2581L118.777 98.1354C118.851 99.191 119.319 100.087 120.034 100.714C120.752 101.339 121.72 101.7 122.801 101.703C123.136 101.703 123.481 101.666 123.833 101.594C124.965 101.362 125.988 100.774 126.763 99.9873C127.537 99.2002 128.071 98.2095 128.238 97.1632C128.289 96.8414 128.305 96.5127 128.282 96.1863L127.335 82.3113L129.099 81.9502L129.685 90.5521C129.708 90.8947 129.986 91.1262 130.335 91.1262C130.923 91.022 131.245 90.6308 131.217 90.2373L130.629 81.6354L131.132 81.5336L135.263 80.6863C135.569 80.6238 135.87 80.5938 136.162 80.5938C138.044 80.5938 139.537 81.853 139.659 83.6979L140.479 95.6863L140.638 98.0266L140.671 98.5104C140.817 100.64 139.083 102.747 136.801 103.214C134.629 103.661 132.953 105.589 132.923 107.61C132.921 107.712 132.923 107.816 132.932 107.918L133.115 109.95L133.981 119.534L134.192 121.874L135.057 131.457L135.268 133.795L138.497 169.459Z" fill="#D0D5DD"/>
<path d="M81.917 185.42C79.7943 185.42 78.1323 183.962 77.961 181.95L70.8221 97.7512C70.6601 95.3947 72.5629 93.066 75.0629 92.5522L117.739 83.8068C117.871 83.779 118.005 83.8114 118.111 83.8924C118.218 83.9735 118.285 84.0961 118.292 84.2304L119.239 98.1077C119.301 99.0012 119.692 99.8045 120.338 100.369C120.982 100.929 121.857 101.24 122.801 101.242C123.1 101.242 123.417 101.21 123.741 101.142C124.739 100.939 125.695 100.413 126.433 99.6656C127.155 98.9318 127.632 98.0174 127.78 97.0938C127.827 96.7975 127.841 96.5059 127.82 96.2234L126.873 82.3438C126.857 82.1123 127.014 81.9063 127.241 81.8577L129.005 81.4966C129.135 81.4688 129.271 81.5012 129.378 81.5822C129.484 81.6633 129.551 81.786 129.558 81.9202L130.146 90.5221C130.153 90.6285 130.241 90.6563 130.301 90.6633C130.614 90.5961 130.767 90.4179 130.755 90.2721L130.167 81.6702C130.151 81.4387 130.308 81.2327 130.535 81.1841L135.169 80.2327C135.503 80.1656 135.836 80.1309 136.16 80.1309C138.317 80.1309 139.982 81.617 140.121 83.6656L141.132 98.4804C141.294 100.828 139.392 103.156 136.892 103.67C134.952 104.068 133.412 105.802 133.385 107.619C133.382 107.71 133.385 107.798 133.392 107.888L138.954 169.42C139.118 171.23 138.044 173.117 136.28 174.112C135.79 174.39 135.267 174.587 134.725 174.698L82.9031 185.321C82.5768 185.385 82.2434 185.42 81.917 185.42ZM117.403 84.8207L75.2457 93.4596C73.1832 93.8832 71.6115 95.7767 71.7434 97.6818L78.8823 181.874C79.0143 183.418 80.2619 184.497 81.917 184.497C82.1809 184.497 82.4518 184.469 82.7226 184.413L134.544 173.791C134.991 173.698 135.424 173.536 135.831 173.307C137.283 172.487 138.169 170.96 138.037 169.504L132.473 107.962C132.463 107.837 132.461 107.721 132.463 107.605C132.498 105.335 134.324 103.254 136.711 102.763C138.774 102.339 140.345 100.448 140.213 98.5452L139.202 83.7304C139.095 82.1563 137.848 81.0591 136.165 81.0591C135.901 81.0591 135.63 81.0869 135.359 81.1424L131.121 82.0128L131.681 90.2096C131.727 90.8693 131.197 91.448 130.417 91.5846C130.392 91.5892 130.364 91.5915 130.336 91.5915C129.732 91.5915 129.262 91.1679 129.223 90.5846L128.672 82.5105L127.822 82.6841L128.741 96.1563C128.767 96.5059 128.75 96.8716 128.692 97.2373C128.514 98.3484 127.947 99.441 127.091 100.311C126.225 101.191 125.1 101.807 123.924 102.048C123.537 102.126 123.158 102.166 122.799 102.166C121.63 102.163 120.54 101.772 119.727 101.064C118.894 100.335 118.392 99.3068 118.313 98.1679L117.403 84.8207Z" fill="#F9FAFB"/>
<path d="M122.797 102.165C121.631 102.163 120.54 101.772 119.728 101.063C118.894 100.334 118.392 99.3065 118.313 98.1676L116.802 76.031C116.769 75.5634 116.79 75.0843 116.867 74.6097C117.1 73.1421 117.85 71.7023 118.98 70.5565C120.121 69.3945 121.607 68.5796 123.165 68.2602C123.665 68.1583 124.163 68.1074 124.647 68.1074C126.179 68.1074 127.612 68.6213 128.679 69.5519C129.772 70.5056 130.429 71.8528 130.526 73.3435L131.679 90.2046C131.723 90.832 131.246 91.4269 130.594 91.5611C130.506 91.5773 130.42 91.5866 130.337 91.5866C129.732 91.5866 129.265 91.163 129.223 90.5796L128.073 73.7185C128.008 72.7857 127.619 71.9824 126.945 71.3945C126.281 70.8134 125.383 70.494 124.413 70.494C124.1 70.494 123.776 70.5287 123.448 70.5958C122.408 70.8088 121.452 71.3343 120.684 72.1144C119.943 72.8667 119.452 73.8042 119.302 74.7533C119.253 75.0588 119.239 75.362 119.26 75.6491L120.772 97.7857C120.811 98.3597 121.05 98.8551 121.464 99.2185C121.876 99.575 122.434 99.7718 123.033 99.7718C123.23 99.7718 123.436 99.7509 123.642 99.7093C124.3 99.5727 124.904 99.2394 125.39 98.7486C125.855 98.2741 126.165 97.6838 126.26 97.0889C126.29 96.906 126.3 96.7162 126.288 96.5264L124.844 75.3968C124.827 75.1792 124.742 74.9963 124.584 74.8597C124.427 74.7232 124.209 74.6445 123.975 74.6445C123.892 74.6468 123.804 74.656 123.721 74.6722C123.448 74.7301 123.195 74.869 122.994 75.075C122.797 75.2741 122.67 75.5148 122.631 75.7556C122.619 75.8227 122.617 75.8991 122.621 75.9755L123.596 90.244C123.64 90.8713 123.161 91.4662 122.51 91.6005C122.425 91.619 122.337 91.6283 122.251 91.6283C121.647 91.6283 121.181 91.2046 121.14 90.6213L120.165 76.3551C120.149 76.1167 120.161 75.8667 120.2 75.6097C120.32 74.8505 120.709 74.1051 121.29 73.5148C121.871 72.9199 122.635 72.5009 123.438 72.3343C123.705 72.2833 123.962 72.2556 124.207 72.2556C125.008 72.2556 125.756 72.5264 126.318 73.0148C126.897 73.5171 127.244 74.2278 127.297 75.0148L128.739 96.1491C128.765 96.4986 128.749 96.8644 128.691 97.2301C128.515 98.3412 127.945 99.4338 127.089 100.304C126.223 101.181 125.1 101.8 123.922 102.04C123.538 102.126 123.158 102.165 122.797 102.165Z" fill="#D0D5DD"/>
<path d="M124.645 68.5724C126.104 68.5724 127.407 69.0585 128.375 69.9034C129.34 70.746 129.972 71.9497 130.064 73.378L130.342 77.4428L130.629 81.6395L131.217 90.2414C131.245 90.6326 130.923 91.0261 130.5 91.1141C130.444 91.1256 130.388 91.1303 130.335 91.1303C129.986 91.1303 129.708 90.8988 129.685 90.5562L129.099 81.9544L128.791 77.4451L128.534 73.6951C128.46 72.6048 127.986 71.6951 127.25 71.0539C126.513 70.4104 125.518 70.04 124.414 70.04C124.074 70.04 123.717 70.077 123.356 70.1511C122.189 70.3918 121.152 70.9891 120.354 71.7969C119.557 72.6048 119.013 73.621 118.844 74.6881C118.791 75.0168 118.773 75.3548 118.798 75.6905L118.919 77.4451L119.363 83.9497L120.31 97.8247C120.358 98.5469 120.673 99.1465 121.159 99.5724C121.648 99.996 122.305 100.241 123.034 100.241C123.261 100.241 123.497 100.218 123.733 100.17C124.507 100.01 125.192 99.6141 125.719 99.0793C126.245 98.5446 126.606 97.8733 126.717 97.1673C126.752 96.9497 126.763 96.7275 126.75 96.503L125.8 82.628L125.446 77.4428L125.305 75.371C125.28 75.0145 125.127 74.7252 124.888 74.5169C124.648 74.3085 124.328 74.1881 123.974 74.1881C123.861 74.1905 123.747 74.202 123.629 74.2252C123.25 74.3039 122.921 74.4937 122.662 74.7576C122.405 75.0192 122.226 75.3479 122.171 75.6905C122.155 75.7969 122.15 75.9057 122.157 76.0145L122.254 77.4451L122.652 83.2738L123.132 90.2831C123.159 90.6789 122.838 91.0678 122.414 91.1557C122.356 91.1673 122.3 91.1719 122.247 91.1719C121.898 91.1719 121.622 90.9381 121.599 90.5956L121.12 83.5863L120.701 77.4428L120.625 76.3293C120.608 76.1164 120.622 75.9011 120.655 75.6905C120.763 75.0076 121.113 74.3594 121.618 73.8479C122.12 73.334 122.791 72.9497 123.53 72.7969C123.759 72.753 123.983 72.7275 124.203 72.7275C124.912 72.7275 125.541 72.9636 126.009 73.3733C126.479 73.7807 126.784 74.3664 126.831 75.0562L126.993 77.4451L127.326 82.3155L128.273 96.1905C128.298 96.5169 128.28 96.8456 128.229 97.1673C128.062 98.2136 127.527 99.202 126.754 99.9914C125.979 100.778 124.956 101.366 123.824 101.598C123.472 101.67 123.127 101.707 122.791 101.707C121.71 101.704 120.74 101.343 120.025 100.718C119.307 100.091 118.842 99.1951 118.768 98.1395L117.828 84.2599L117.363 77.4405L117.266 76.0006C117.236 75.5608 117.257 75.1187 117.326 74.6835C117.55 73.2761 118.268 71.9428 119.312 70.8826C120.356 69.8201 121.733 69.0284 123.259 68.7159C123.729 68.6187 124.194 68.5724 124.645 68.5724ZM124.645 67.6465C124.131 67.6465 123.604 67.6997 123.074 67.8062C121.423 68.1442 119.854 69.0053 118.648 70.2321C117.453 71.4451 116.657 72.9729 116.409 74.5354C116.328 75.0446 116.305 75.5585 116.34 76.0631L116.437 77.503L116.902 84.3224L117.849 98.1997C117.939 99.4636 118.497 100.603 119.421 101.413C120.319 102.195 121.516 102.626 122.796 102.63C123.189 102.63 123.599 102.589 124.013 102.503C125.282 102.244 126.493 101.582 127.421 100.64C128.344 99.6997 128.958 98.5169 129.15 97.3132C129.215 96.9104 129.231 96.5099 129.203 96.121L128.858 91.0632C129.083 91.6511 129.655 92.0539 130.335 92.0539C130.449 92.0539 130.564 92.0423 130.68 92.0192C131.562 91.8386 132.201 91.0284 132.141 90.1743L131.553 81.5747L131.266 77.378L130.988 73.3131C130.882 71.6997 130.169 70.2391 128.983 69.2044C127.831 68.1997 126.289 67.6465 124.645 67.6465ZM119.724 75.6835L119.719 75.6233C119.701 75.3641 119.713 75.1002 119.757 74.8294C119.893 73.9729 120.34 73.1256 121.011 72.4405C121.715 71.7275 122.59 71.2483 123.539 71.0516C123.838 70.9914 124.129 70.959 124.412 70.959C125.268 70.959 126.06 71.2391 126.638 71.7437C127.219 72.2506 127.555 72.9451 127.608 73.7506L127.645 74.3085C127.474 73.6719 127.122 73.1025 126.62 72.6673C125.976 72.1048 125.12 71.7946 124.208 71.7946C123.932 71.7946 123.645 71.8224 123.356 71.8803C122.453 72.0678 121.606 72.5307 120.96 73.1928C120.312 73.8502 119.882 74.6835 119.745 75.5377C119.738 75.5886 119.731 75.6349 119.724 75.6835ZM122.252 92.0932C122.368 92.0932 122.488 92.0817 122.604 92.0562C123.479 91.8756 124.118 91.0678 124.06 90.2136L123.581 83.2044L123.182 77.3757L123.085 75.9451C123.083 75.9034 123.083 75.8641 123.09 75.8293C123.113 75.6858 123.199 75.5284 123.324 75.4011C123.463 75.2576 123.634 75.165 123.821 75.1256C123.868 75.1164 123.923 75.1094 123.986 75.1094C124.106 75.1118 124.208 75.1465 124.284 75.2113C124.344 75.2645 124.377 75.334 124.384 75.4312L124.525 77.5006L124.879 82.6858L125.828 96.5608C125.838 96.709 125.831 96.8641 125.805 97.0168C125.726 97.5168 125.46 98.0192 125.06 98.4266C124.641 98.8525 124.115 99.1395 123.546 99.2599C123.377 99.2946 123.201 99.3108 123.034 99.3108C122.546 99.3108 122.094 99.1534 121.766 98.8687C121.451 98.5909 121.266 98.2067 121.233 97.7576L120.78 91.1071C121.002 91.6928 121.574 92.0932 122.252 92.0932Z" fill="#F9FAFB"/>
<path d="M190.316 74.457L190.772 77.3112C191.048 79.0218 192.222 80.3621 193.911 80.8899L196.733 81.7695L193.631 82.6492C191.775 83.1769 190.173 84.5172 189.351 86.2279L187.983 89.082L187.525 86.2279C187.249 84.5172 186.076 83.1769 184.386 82.6492L181.566 81.7695L184.666 80.8899C186.522 80.3621 188.124 79.0218 188.946 77.3112L190.316 74.457Z" fill="#D0D5DD"/>
<path d="M93.2415 63.2422L93.5911 65.4297C93.8017 66.7422 94.7022 67.77 95.9985 68.1727L98.1605 68.8464L95.7832 69.5223C94.3596 69.9251 93.1304 70.9528 92.5008 72.263L91.4522 74.4528L91.1026 72.263C90.892 70.9505 89.9915 69.9251 88.6952 69.5223L86.5332 68.8464L88.9105 68.1727C90.3341 67.77 91.5633 66.7399 92.1929 65.4297L93.2415 63.2422Z" fill="#D0D5DD"/>
<path d="M152.299 138.971L152.494 140.191C152.612 140.92 153.114 141.494 153.836 141.718L155.04 142.093L153.716 142.468C152.922 142.695 152.237 143.267 151.885 143.996L151.299 145.216L151.105 143.996C150.987 143.267 150.487 142.693 149.765 142.468L148.559 142.093L149.885 141.718C150.679 141.492 151.362 140.92 151.714 140.191L152.299 138.971Z" fill="#D0D5DD"/>
<path d="M64.5857 155.314L64.7802 156.534C64.8982 157.266 65.4005 157.838 66.1228 158.062L67.3265 158.437L66.0024 158.812C65.2084 159.039 64.5232 159.611 64.1714 160.342L63.588 161.562L63.3936 160.342C63.2778 159.611 62.7755 159.039 62.0533 158.812L60.8496 158.437L62.1737 158.062C62.9677 157.838 63.6528 157.266 64.0024 156.534L64.5857 155.314Z" fill="#D0D5DD"/>
</svg>
