<svg xmlns="http://www.w3.org/2000/svg" width="20" height="20" viewBox="0 0 20 20" fill="none">
  <path d="M8.8213 7.64281C8.49586 7.31738 7.96822 7.31738 7.64279 7.64281C7.31735 7.96825 7.31735 8.49589 7.64279 8.82133L8.8213 9.99984L7.64279 11.1783C7.31735 11.5038 7.31735 12.0314 7.64279 12.3569C7.96822 12.6823 8.49586 12.6823 8.8213 12.3569L9.99981 11.1783L11.1783 12.3569C11.5038 12.6823 12.0314 12.6823 12.3568 12.3569C12.6823 12.0314 12.6823 11.5038 12.3568 11.1783L11.1783 9.99984L12.3568 8.82133C12.6823 8.49589 12.6823 7.96825 12.3568 7.64281C12.0314 7.31738 11.5038 7.31738 11.1783 7.64281L9.99981 8.82133L8.8213 7.64281Z" fill="#CB1A14"/>
  <path fill-rule="evenodd" clip-rule="evenodd" d="M9.99984 1.6665C5.39746 1.6665 1.6665 5.39746 1.6665 9.99984C1.6665 14.6022 5.39746 18.3332 9.99984 18.3332C14.6022 18.3332 18.3332 14.6022 18.3332 9.99984C18.3332 5.39746 14.6022 1.6665 9.99984 1.6665ZM3.33317 9.99984C3.33317 6.31794 6.31794 3.33317 9.99984 3.33317C13.6817 3.33317 16.6665 6.31794 16.6665 9.99984C16.6665 13.6817 13.6817 16.6665 9.99984 16.6665C6.31794 16.6665 3.33317 13.6817 3.33317 9.99984Z" fill="#CB1A14"/>
</svg>