<svg xmlns="http://www.w3.org/2000/svg" width="20" height="20" viewBox="0 0 20 20" fill="none">
    <path d="M3.33301 5.00001C3.33301 4.53977 3.7061 4.16667 4.16634 4.16667H15.833C16.2932 4.16667 16.6663 4.53977 16.6663 5.00001C16.6663 5.46024 16.2932 5.83334 15.833 5.83334H4.16634C3.7061 5.83334 3.33301 5.46024 3.33301 5.00001Z" fill="#344054"/>
    <path d="M4.99967 10C4.99967 9.53977 5.37277 9.16667 5.83301 9.16667H14.1663C14.6266 9.16667 14.9997 9.53977 14.9997 10C14.9997 10.4602 14.6266 10.8333 14.1663 10.8333H5.83301C5.37277 10.8333 4.99967 10.4602 4.99967 10Z" fill="#344054"/>
    <path d="M7.49967 14.1667C7.03944 14.1667 6.66634 14.5398 6.66634 15C6.66634 15.4602 7.03944 15.8333 7.49967 15.8333H12.4997C12.9599 15.8333 13.333 15.4602 13.333 15C13.333 14.5398 12.9599 14.1667 12.4997 14.1667H7.49967Z" fill="#344054"/>
  </svg>