<svg width="20" height="20" viewBox="0 0 20 20" fill="none" xmlns="http://www.w3.org/2000/svg">
<path d="M3.33331 5.00002C3.33331 4.53978 3.70641 4.16669 4.16665 4.16669H15.8333C16.2936 4.16669 16.6666 4.53978 16.6666 5.00002C16.6666 5.46026 16.2936 5.83335 15.8333 5.83335H4.16665C3.70641 5.83335 3.33331 5.46026 3.33331 5.00002Z" fill="#101928"/>
<path d="M4.99998 10C4.99998 9.53978 5.37308 9.16669 5.83331 9.16669H14.1666C14.6269 9.16669 15 9.53978 15 10C15 10.4603 14.6269 10.8334 14.1666 10.8334H5.83331C5.37308 10.8334 4.99998 10.4603 4.99998 10Z" fill="#101928"/>
<path d="M7.49998 14.1667C7.03974 14.1667 6.66665 14.5398 6.66665 15C6.66665 15.4603 7.03974 15.8334 7.49998 15.8334H12.5C12.9602 15.8334 13.3333 15.4603 13.3333 15C13.3333 14.5398 12.9602 14.1667 12.5 14.1667H7.49998Z" fill="#101928"/>
</svg>
