<svg width="24" height="24" viewBox="0 0 24 24" fill="none" xmlns="http://www.w3.org/2000/svg">
<path d="M18.5291 12.8569L17.2204 11.5483C17.1873 11.5151 17.1989 11.4597 17.2412 11.4412C17.7034 11.2417 18.1355 10.9844 18.5291 10.6802C18.67 10.5708 18.8056 10.456 18.9358 10.3351C19.3155 9.98235 19.649 9.58105 19.9263 9.14047C19.9271 9.13893 19.9278 9.13816 19.9286 9.13662C20.0965 8.86935 20.2444 8.58744 20.3692 8.29398C20.6704 7.58535 20.8383 6.80664 20.8413 5.98864C20.8413 5.98864 20.8413 5.98787 20.8413 5.9871C20.8413 5.9794 20.8413 5.97169 20.8413 5.96399C20.8413 5.14676 20.6773 4.36882 20.38 3.65942C20.2806 3.42142 20.1658 3.19112 20.0372 2.97006C20.0372 2.96852 20.0357 2.96775 20.0357 2.96698C19.4572 1.97336 18.5999 1.16307 17.5717 0.641612C17.5678 0.639302 17.5632 0.636991 17.5593 0.63545C16.7637 0.234154 15.4188 0.00616194 14.4684 0C14.4553 0 14.8904 0 14.8774 0C14.8643 0 14.8519 0 14.8388 0H2.27695C1.29566 0 0.5 0.795661 0.5 1.77695V14.4474C0.5 14.858 0.541593 15.2593 0.620928 15.6467C0.620928 15.6475 0.620928 15.6483 0.620928 15.6498C0.768815 16.3723 1.04764 17.0478 1.43122 17.6493C1.43122 17.6509 1.43276 17.6517 1.43353 17.6532C2.07592 18.6599 3.01253 19.461 4.12168 19.9347C4.12553 19.9362 4.12938 19.9377 4.13324 19.9393C4.14171 19.9431 4.15095 19.947 4.15942 19.9508C4.73017 20.1904 5.3456 20.3429 5.99029 20.3937C6.14665 20.406 6.30378 20.4122 6.46322 20.4122C7.28584 20.4122 8.06918 20.2458 8.78165 19.9447C9.28462 19.7321 9.75293 19.4525 10.175 19.1167C10.1758 19.1167 10.1766 19.1159 10.1773 19.1151C10.185 19.109 10.1935 19.1028 10.2012 19.0959C10.2035 19.0943 10.2058 19.092 10.2081 19.0905C10.7542 18.6491 11.221 18.1138 11.583 17.5084C12.096 16.6511 12.4003 15.6552 12.4249 14.5899V14.5876C12.4257 14.5414 12.4264 14.4952 12.4264 14.449C12.4264 14.4028 12.4264 14.3566 12.4249 14.3103V12.1806C12.4249 12.089 12.5358 12.0428 12.6005 12.1075L18.0015 17.5084L19.2654 18.7724C19.8485 19.3554 20.8444 18.9426 20.8444 18.1184V15.8362C20.8444 15.4141 20.6765 15.009 20.3777 14.7101L18.526 12.8584L18.5291 12.8569ZM14.875 8.29398H9.18603C8.96343 8.29398 8.78242 8.47421 8.78242 8.69758V14.4975V14.4983C8.70925 16.125 7.07248 17.1787 5.56974 16.5494C4.7579 16.2098 4.20872 15.4264 4.15942 14.5399V4.01528C4.15942 3.82118 4.31732 3.66328 4.51143 3.66328L9.37474 3.66019C9.37474 3.66019 9.37474 3.66174 9.37397 3.66251C10.3945 3.66251 11.4482 3.66251 12.4264 3.66251C13.3399 3.66251 14.188 3.66251 14.8812 3.66405C16.1359 3.66559 17.1711 4.71004 17.1758 5.96091C17.1804 7.24337 16.1629 8.27626 14.875 8.29475V8.29398Z" fill="#F56630"/>
</svg>
