<svg width="20" height="20" viewBox="0 0 20 20" fill="none" xmlns="http://www.w3.org/2000/svg">
<path d="M11.25 12.5V16.6667C11.25 17.3571 11.8096 17.9167 12.5 17.9167H16.6666C17.357 17.9167 17.9166 17.3571 17.9166 16.6667V12.5C17.9166 11.8097 17.357 11.25 16.6666 11.25H12.5C11.8096 11.25 11.25 11.8097 11.25 12.5Z" fill="black"/>
<path d="M2.08331 12.5L2.08331 16.6667C2.08331 17.3571 2.64296 17.9167 3.33331 17.9167H7.49998C8.19034 17.9167 8.74998 17.3571 8.74998 16.6667V12.5C8.74998 11.8097 8.19034 11.25 7.49998 11.25H3.33331C2.64296 11.25 2.08331 11.8097 2.08331 12.5Z" fill="black"/>
<path d="M2.08331 3.33337L2.08331 7.50004C2.08331 8.1904 2.64296 8.75004 3.33331 8.75004H7.49998C8.19034 8.75004 8.74998 8.1904 8.74998 7.50004V3.33337C8.74998 2.64302 8.19034 2.08337 7.49998 2.08337L3.33331 2.08337C2.64296 2.08337 2.08331 2.64302 2.08331 3.33337Z" fill="black"/>
<path d="M11.25 3.33337V7.50004C11.25 8.1904 11.8096 8.75004 12.5 8.75004H16.6666C17.357 8.75004 17.9166 8.1904 17.9166 7.50004V3.33337C17.9166 2.64302 17.357 2.08337 16.6666 2.08337L12.5 2.08337C11.8096 2.08337 11.25 2.64302 11.25 3.33337Z" fill="black"/>
<path d="M11.25 12.5V16.6667C11.25 17.3571 11.8096 17.9167 12.5 17.9167H16.6666C17.357 17.9167 17.9166 17.3571 17.9166 16.6667V12.5C17.9166 11.8097 17.357 11.25 16.6666 11.25H12.5C11.8096 11.25 11.25 11.8097 11.25 12.5Z" fill="black"/>
<path d="M2.08331 12.5L2.08331 16.6667C2.08331 17.3571 2.64296 17.9167 3.33331 17.9167H7.49998C8.19034 17.9167 8.74998 17.3571 8.74998 16.6667V12.5C8.74998 11.8097 8.19034 11.25 7.49998 11.25H3.33331C2.64296 11.25 2.08331 11.8097 2.08331 12.5Z" fill="black"/>
<path d="M2.08331 3.33337L2.08331 7.50004C2.08331 8.1904 2.64296 8.75004 3.33331 8.75004H7.49998C8.19034 8.75004 8.74998 8.1904 8.74998 7.50004V3.33337C8.74998 2.64302 8.19034 2.08337 7.49998 2.08337L3.33331 2.08337C2.64296 2.08337 2.08331 2.64302 2.08331 3.33337Z" fill="black"/>
<path d="M11.25 3.33337V7.50004C11.25 8.1904 11.8096 8.75004 12.5 8.75004H16.6666C17.357 8.75004 17.9166 8.1904 17.9166 7.50004V3.33337C17.9166 2.64302 17.357 2.08337 16.6666 2.08337L12.5 2.08337C11.8096 2.08337 11.25 2.64302 11.25 3.33337Z" fill="black"/>
</svg>
