<svg xmlns="http://www.w3.org/2000/svg" width="20" height="20" viewBox="0 0 20 20" fill="none">
    <path fill-rule="evenodd" clip-rule="evenodd" d="M8.71537 2.27549C9.24894 2.54572 9.68331 2.862 10.0002 3.12792C10.317 2.862 10.7514 2.54572 11.2849 2.27549C12.4941 1.66312 14.2343 1.28437 16.1913 2.27548C17.4414 2.90859 18.287 3.86655 18.7475 5.02963C19.2018 6.17708 19.2635 7.47611 19.0448 8.79408C18.6723 11.0396 17.1375 13.0433 15.5612 14.5871C13.9653 16.1502 12.2153 17.349 11.2284 17.974C10.473 18.4525 9.52735 18.4525 8.77195 17.9741C7.78504 17.349 6.03509 16.1502 4.43912 14.5871C2.86282 13.0433 1.32801 11.0396 0.955428 8.79408C0.736747 7.47611 0.798473 6.17708 1.25277 5.02963C1.71327 3.86655 2.5589 2.90859 3.809 2.27548C5.766 1.28437 7.50623 1.66312 8.71537 2.27549ZM9.36529 4.82075C9.52361 5.00697 9.75572 5.11432 10.0002 5.11432C10.2443 5.11432 10.476 5.00733 10.6343 4.82171C10.6345 4.8215 10.6346 4.82129 10.6348 4.82107C10.635 4.82082 10.6352 4.82057 10.6355 4.82032L10.6481 4.80612C10.6611 4.79173 10.6829 4.76803 10.713 4.73678C10.7736 4.67415 10.867 4.58206 10.9902 4.47436C11.2382 4.25732 11.5963 3.98604 12.038 3.76234C12.9055 3.32299 14.0726 3.0707 15.4383 3.76234C16.3299 4.21392 16.8893 4.86381 17.1979 5.64317C17.5126 6.43817 17.584 7.41618 17.4006 8.52127C17.1161 10.2361 15.8933 11.929 14.395 13.3964C12.9164 14.8446 11.2748 15.9719 10.3367 16.566C10.1258 16.6996 9.87461 16.6996 9.66372 16.566C8.72561 15.9719 7.08395 14.8446 5.6053 13.3964C4.10698 11.929 2.88414 10.2361 2.59962 8.52127C2.41626 7.41618 2.48764 6.43817 2.8024 5.64317C3.11097 4.86381 3.67035 4.21392 4.56201 3.76234C5.9277 3.0707 7.09482 3.32298 7.96235 3.76234C8.40405 3.98604 8.76212 4.25733 9.01023 4.47437C9.13335 4.58207 9.22683 4.67417 9.28735 4.7368C9.31754 4.76805 9.33933 4.79175 9.35229 4.80614L9.36529 4.82075Z" fill="#000619"/>
  </svg>