<svg xmlns="http://www.w3.org/2000/svg" width="20" height="20" viewBox="0 0 20 20" fill="none">
    <path fill-rule="evenodd" clip-rule="evenodd"
        d="M8.71537 2.27592C9.24894 2.54614 9.68331 2.86243 10.0002 3.12835C10.317 2.86243 10.7514 2.54615 11.2849 2.27592C12.4941 1.66355 14.2343 1.2848 16.1913 2.27591C17.4414 2.90901 18.287 3.86698 18.7475 5.03006C19.2018 6.17751 19.2635 7.47654 19.0448 8.79451C18.6723 11.04 17.1375 13.0437 15.5612 14.5875C13.9653 16.1506 12.2153 17.3494 11.2284 17.9745C10.473 18.4529 9.52735 18.4529 8.77195 17.9745C7.78504 17.3494 6.03509 16.1507 4.43912 14.5876C2.86282 13.0437 1.32801 11.04 0.955428 8.79451C0.736747 7.47654 0.798473 6.17751 1.25277 5.03006C1.71327 3.86698 2.5589 2.90901 3.809 2.27591C5.766 1.2848 7.50623 1.66355 8.71537 2.27592ZM9.36529 4.82118C9.52361 5.0074 9.75572 5.11475 10.0002 5.11475C10.2443 5.11474 10.476 5.00776 10.6343 4.82214C10.6345 4.82193 10.6346 4.82171 10.6348 4.8215C10.635 4.82125 10.6352 4.821 10.6355 4.82075L10.6481 4.80655C10.6611 4.79216 10.6829 4.76846 10.713 4.73721C10.7736 4.67458 10.867 4.58249 10.9902 4.47478C11.2382 4.25775 11.5963 3.98646 12.038 3.76277C12.9055 3.32341 14.0726 3.07112 15.4383 3.76277C16.3299 4.21435 16.8893 4.86423 17.1979 5.6436C17.5126 6.4386 17.584 7.41661 17.4006 8.5217C17.1161 10.2365 15.8933 11.9294 14.395 13.3968C12.9164 14.845 11.2748 15.9723 10.3367 16.5665C10.1258 16.7 9.87461 16.7 9.66372 16.5665C8.72561 15.9723 7.08395 14.845 5.6053 13.3968C4.10698 11.9294 2.88414 10.2365 2.59962 8.5217C2.41626 7.41661 2.48764 6.4386 2.8024 5.6436C3.11097 4.86423 3.67035 4.21435 4.56201 3.76277C5.9277 3.07112 7.09482 3.32341 7.96235 3.76277C8.40405 3.98647 8.76212 4.25776 9.01023 4.4748C9.13335 4.5825 9.22683 4.67459 9.28735 4.73722C9.31754 4.76847 9.33933 4.79218 9.35229 4.80657L9.36529 4.82118Z"
        fill="white" />
</svg>