<svg width="20" height="20" viewBox="0 0 20 20" fill="none" xmlns="http://www.w3.org/2000/svg">
<path fill-rule="evenodd" clip-rule="evenodd" d="M8.71524 2.27595C9.24882 2.54617 9.68319 2.86246 10.0001 3.12838C10.3169 2.86246 10.7513 2.54618 11.2848 2.27595C12.4939 1.66358 14.2341 1.28483 16.1911 2.27594C17.4412 2.90904 18.2869 3.86701 18.7474 5.03009C19.2017 6.17754 19.2634 7.47657 19.0447 8.79454C18.6721 11.04 17.1374 13.0437 15.5611 14.5876C13.9651 16.1507 12.2152 17.3494 11.2283 17.9745C10.4729 18.4529 9.52723 18.4529 8.77183 17.9745C7.78491 17.3495 6.03497 16.1507 4.43899 14.5876C2.86269 13.0438 1.32789 11.04 0.955306 8.79454C0.736625 7.47657 0.798351 6.17754 1.25265 5.03009C1.71315 3.86701 2.55878 2.90905 3.80887 2.27594C5.76587 1.28483 7.5061 1.66358 8.71524 2.27595ZM9.36517 4.82121C9.52348 5.00743 9.7556 5.11478 10.0001 5.11478C10.2441 5.11478 10.4759 5.00779 10.6342 4.82217C10.6343 4.82196 10.6345 4.82174 10.6347 4.82153C10.6349 4.82128 10.6351 4.82103 10.6353 4.82078L10.648 4.80658C10.661 4.79219 10.6827 4.76849 10.7129 4.73724C10.7734 4.67461 10.8669 4.58252 10.99 4.47481C11.2381 4.25778 11.5962 3.98649 12.0379 3.7628C12.9054 3.32344 14.0724 3.07115 15.4381 3.7628C16.3298 4.21438 16.8892 4.86426 17.1977 5.64363C17.5125 6.43863 17.5839 7.41664 17.4005 8.52173C17.116 10.2365 15.8932 11.9294 14.3949 13.3969C12.9163 14.8451 11.2746 15.9723 10.3365 16.5665C10.1256 16.7001 9.87449 16.7001 9.6636 16.5665C8.72549 15.9723 7.08383 14.8451 5.60518 13.3969C4.10686 11.9294 2.88402 10.2365 2.59949 8.52173C2.41613 7.41664 2.48752 6.43863 2.80228 5.64363C3.11085 4.86426 3.67023 4.21438 4.56189 3.7628C5.92758 3.07115 7.0947 3.32344 7.96223 3.7628C8.40393 3.9865 8.762 4.25779 9.01011 4.47483C9.13323 4.58253 9.22671 4.67462 9.28723 4.73726C9.31742 4.7685 9.33921 4.79221 9.35217 4.8066L9.36517 4.82121Z" fill="#667185"/>
</svg>
