<svg xmlns="http://www.w3.org/2000/svg" width="20" height="20" viewBox="0 0 20 20" fill="none">
    <path fill-rule="evenodd" clip-rule="evenodd" d="M8.71512 2.27592C9.2487 2.54614 9.68307 2.86243 9.99994 3.12835C10.3168 2.86243 10.7511 2.54615 11.2847 2.27592C12.4938 1.66355 14.234 1.2848 16.191 2.27591C17.4411 2.90901 18.2867 3.86698 18.7472 5.03006C19.2015 6.17751 19.2633 7.47654 19.0446 8.79451C18.672 11.04 17.1372 13.0437 15.561 14.5875C13.965 16.1506 12.2151 17.3494 11.2282 17.9745C10.4728 18.4529 9.5271 18.4529 8.77171 17.9745C7.78479 17.3494 6.03485 16.1507 4.43887 14.5876C2.86257 13.0437 1.32776 11.04 0.955184 8.79451C0.736503 7.47654 0.798229 6.17751 1.25253 5.03006C1.71302 3.86698 2.55866 2.90901 3.80875 2.27591C5.76575 1.2848 7.50598 1.66355 8.71512 2.27592ZM9.36505 4.82118C9.52336 5.0074 9.75548 5.11475 9.99996 5.11475C10.244 5.11474 10.4757 5.00776 10.634 4.82214C10.6342 4.82193 10.6344 4.82171 10.6346 4.8215C10.6348 4.82125 10.635 4.821 10.6352 4.82075L10.6479 4.80655C10.6608 4.79216 10.6826 4.76846 10.7128 4.73721C10.7733 4.67458 10.8668 4.58249 10.9899 4.47478C11.238 4.25775 11.5961 3.98646 12.0377 3.76277C12.9052 3.32341 14.0723 3.07112 15.438 3.76277C16.3297 4.21435 16.889 4.86423 17.1976 5.6436C17.5124 6.4386 17.5838 7.41661 17.4004 8.5217C17.1159 10.2365 15.8931 11.9294 14.3948 13.3968C12.9161 14.845 11.2745 15.9723 10.3364 16.5665C10.1255 16.7 9.87437 16.7 9.66348 16.5665C8.72536 15.9723 7.0837 14.845 5.60506 13.3968C4.10673 11.9294 2.8839 10.2365 2.59937 8.5217C2.41601 7.41661 2.4874 6.4386 2.80216 5.6436C3.11073 4.86423 3.6701 4.21435 4.56176 3.76277C5.92746 3.07112 7.09457 3.32341 7.96211 3.76277C8.40381 3.98647 8.76188 4.25776 9.00999 4.4748C9.13311 4.5825 9.22659 4.67459 9.2871 4.73722C9.3173 4.76847 9.33908 4.79218 9.35205 4.80657L9.36505 4.82118Z" fill="#EB5017"/>
  </svg>