<svg xmlns="http://www.w3.org/2000/svg" width="20" height="20" viewBox="0 0 20 20" fill="none">
  <path fill-rule="evenodd" clip-rule="evenodd" d="M8.71512 2.27598C9.2487 2.5462 9.68307 2.86249 9.99994 3.12841C10.3168 2.86249 10.7511 2.54621 11.2847 2.27598C12.4938 1.66361 14.234 1.28486 16.191 2.27597C17.4411 2.90908 18.2867 3.86704 18.7472 5.03012C19.2015 6.17757 19.2633 7.4766 19.0446 8.79457C18.672 11.0401 17.1372 13.0438 15.561 14.5876C13.965 16.1507 12.2151 17.3495 11.2282 17.9745C10.4728 18.453 9.5271 18.453 8.77171 17.9745C7.78479 17.3495 6.03485 16.1507 4.43887 14.5876C2.86257 13.0438 1.32776 11.0401 0.955184 8.79457C0.736503 7.4766 0.798229 6.17757 1.25253 5.03012C1.71302 3.86704 2.55866 2.90908 3.80875 2.27597C5.76575 1.28486 7.50598 1.66361 8.71512 2.27598ZM9.36505 4.82124C9.52336 5.00746 9.75548 5.11481 9.99996 5.11481C10.244 5.11481 10.4757 5.00782 10.634 4.8222C10.6342 4.82199 10.6344 4.82178 10.6346 4.82156C10.6348 4.82131 10.635 4.82106 10.6352 4.82081L10.6479 4.80661C10.6608 4.79222 10.6826 4.76852 10.7128 4.73727C10.7733 4.67464 10.8668 4.58255 10.9899 4.47484C11.238 4.25781 11.5961 3.98653 12.0377 3.76283C12.9052 3.32348 14.0723 3.07118 15.438 3.76283C16.3297 4.21441 16.889 4.8643 17.1976 5.64366C17.5124 6.43866 17.5838 7.41667 17.4004 8.52176C17.1159 10.2366 15.8931 11.9294 14.3948 13.3969C12.9161 14.8451 11.2745 15.9724 10.3364 16.5665C10.1255 16.7001 9.87437 16.7001 9.66348 16.5665C8.72536 15.9724 7.0837 14.8451 5.60506 13.3969C4.10673 11.9294 2.8839 10.2366 2.59937 8.52176C2.41601 7.41667 2.4874 6.43866 2.80216 5.64366C3.11073 4.8643 3.6701 4.21441 4.56176 3.76283C5.92746 3.07118 7.09457 3.32347 7.96211 3.76283C8.40381 3.98653 8.76188 4.25782 9.00999 4.47486C9.13311 4.58256 9.22659 4.67465 9.2871 4.73729C9.3173 4.76853 9.33908 4.79224 9.35205 4.80663L9.36505 4.82124Z" fill="#F29408"/>
</svg>