<svg width="16" height="16" viewBox="0 0 16 16" fill="none" xmlns="http://www.w3.org/2000/svg">
<path d="M8.09339 6.76329C8.28156 6.62216 8.3267 6.35861 8.19623 6.16291C8.0411 5.93021 7.71186 5.89761 7.5141 6.09536L7.13805 6.47141C6.8777 6.73176 6.45559 6.73176 6.19524 6.47142C5.93489 6.21107 5.93489 5.78896 6.19524 5.52861L6.57129 5.15255C7.36401 4.35984 8.68378 4.49052 9.30563 5.4233C9.82864 6.20781 9.64768 7.26424 8.89339 7.82995L8.86103 7.85423C8.73866 7.946 8.66665 8.09003 8.66665 8.24298L8.66665 8.33334C8.66665 8.70153 8.36817 9.00001 7.99998 9.00001C7.63179 9.00001 7.33331 8.70153 7.33331 8.33334L7.33331 8.24298C7.33331 7.67035 7.60292 7.13114 8.06103 6.78756L8.09339 6.76329Z" fill="#475467"/>
<path d="M7.33331 10.3333C7.33331 10.7015 7.63179 11 7.99998 11C8.36817 11 8.66665 10.7015 8.66665 10.3333C8.66665 9.96515 8.36817 9.66668 7.99998 9.66668C7.63179 9.66668 7.33331 9.96515 7.33331 10.3333Z" fill="#475467"/>
<path fill-rule="evenodd" clip-rule="evenodd" d="M1.33331 8.00001C1.33331 4.31811 4.31808 1.33334 7.99998 1.33334C11.6819 1.33334 14.6666 4.31811 14.6666 8.00001C14.6666 11.6819 11.6819 14.6667 7.99998 14.6667C4.31808 14.6667 1.33331 11.6819 1.33331 8.00001ZM7.99998 2.66668C5.05446 2.66668 2.66665 5.05449 2.66665 8.00001C2.66665 10.9455 5.05446 13.3333 7.99998 13.3333C10.9455 13.3333 13.3333 10.9455 13.3333 8.00001C13.3333 5.05449 10.9455 2.66668 7.99998 2.66668Z" fill="#475467"/>
</svg>
