<svg width="20" height="20" viewBox="0 0 20 20" fill="none" xmlns="http://www.w3.org/2000/svg">
<path d="M8.56691 2.67018L2.83559 6.6821C2.11146 7.189 1.70882 8.04061 1.77661 8.92192L2.36413 16.5596C2.438 17.5199 3.30811 18.2179 4.26159 18.0817L6.90293 17.7044C7.72401 17.5871 8.33389 16.8839 8.33389 16.0545V15C8.33389 14.0795 9.08009 13.3333 10.0006 13.3333C10.921 13.3333 11.6672 14.0795 11.6672 15V16.0545C11.6672 16.8839 12.2771 17.5871 13.0982 17.7044L15.7395 18.0817C16.693 18.2179 17.5631 17.5199 17.637 16.5596L18.2245 8.92192C18.2923 8.04061 17.8897 7.189 17.1655 6.6821L11.4342 2.67018C10.5734 2.06762 9.42771 2.06762 8.56691 2.67018Z" fill="#667185"/>
</svg>
