<svg xmlns="http://www.w3.org/2000/svg" width="21" height="20" viewBox="0 0 21 20" fill="none">
    <path d="M9.06721 2.67067L3.3359 6.68259C2.61176 7.18949 2.20912 8.04109 2.27692 8.92241L2.86443 16.5601C2.9383 17.5204 3.80842 18.2184 4.76189 18.0822L7.40324 17.7049C8.22432 17.5876 8.8342 16.8844 8.8342 16.055V15.0004C8.8342 14.08 9.58039 13.3338 10.5009 13.3338C11.4213 13.3338 12.1675 14.08 12.1675 15.0004V16.055C12.1675 16.8844 12.7774 17.5876 13.5985 17.7049L16.2398 18.0822C17.1933 18.2184 18.0634 17.5204 18.1373 16.5601L18.7248 8.92241C18.7926 8.0411 18.39 7.18949 17.6658 6.68259L11.9345 2.67067C11.0737 2.06811 9.92801 2.06811 9.06721 2.67067Z" fill="#F2F4F7"/>
  </svg>