<svg width="18" height="18" viewBox="0 0 18 18" fill="none" xmlns="http://www.w3.org/2000/svg">
<path d="M9 4.5C9.41421 4.5 9.75 4.83579 9.75 5.25V10.5C9.75 10.9142 9.41421 11.25 9 11.25C8.58579 11.25 8.25 10.9142 8.25 10.5V5.25C8.25 4.83579 8.58579 4.5 9 4.5Z" fill="#667185"/>
<path d="M8.0625 12.5625C8.0625 13.0803 8.48223 13.5 9 13.5C9.51777 13.5 9.9375 13.0803 9.9375 12.5625C9.9375 12.0447 9.51777 11.625 9 11.625C8.48223 11.625 8.0625 12.0447 8.0625 12.5625Z" fill="#667185"/>
<path fill-rule="evenodd" clip-rule="evenodd" d="M1.5 9C1.5 4.85786 4.85786 1.5 9 1.5C13.1421 1.5 16.5 4.85786 16.5 9C16.5 13.1421 13.1421 16.5 9 16.5C4.85786 16.5 1.5 13.1421 1.5 9ZM9 3C5.68629 3 3 5.68629 3 9C3 12.3137 5.68629 15 9 15C12.3137 15 15 12.3137 15 9C15 5.68629 12.3137 3 9 3Z" fill="#667185"/>
</svg>
