<svg width="28" height="28" viewBox="0 0 28 28" fill="none" xmlns="http://www.w3.org/2000/svg">
<g id="icon / info-circle">
<path id="icon" fill-rule="evenodd" clip-rule="evenodd" d="M24.5 14C24.5 19.799 19.799 24.5 14 24.5C8.20101 24.5 3.5 19.799 3.5 14C3.5 8.20101 8.20101 3.5 14 3.5C19.799 3.5 24.5 8.20101 24.5 14ZM14 7C14.6443 7 15.1667 7.52233 15.1667 8.16667V16.3333C15.1667 16.9777 14.6443 17.5 14 17.5C13.3557 17.5 12.8333 16.9777 12.8333 16.3333L12.8333 8.16667C12.8333 7.52233 13.3557 7 14 7ZM12.5417 19.5417C12.5417 20.3471 13.1946 21 14 21C14.8054 21 15.4583 20.3471 15.4583 19.5417C15.4583 18.7363 14.8054 18.0833 14 18.0833C13.1946 18.0833 12.5417 18.7363 12.5417 19.5417Z" fill="#1671D9"/>
</g>
</svg>
