<svg xmlns="http://www.w3.org/2000/svg" width="20" height="20" viewBox="0 0 20 20" fill="none">
  <path d="M10.8334 12.5C10.8334 12.0398 10.4603 11.6667 10.0001 11.6667C9.53984 11.6667 9.16675 12.0398 9.16675 12.5V14.1667C9.16675 14.6269 9.53984 15 10.0001 15C10.4603 15 10.8334 14.6269 10.8334 14.1667V12.5Z" fill="#667185"/>
  <path fill-rule="evenodd" clip-rule="evenodd" d="M15.0001 5.83337C15.0001 3.07195 12.7615 0.833374 10.0001 0.833374C7.23866 0.833374 5.00008 3.07195 5.00008 5.83337V7.50004C3.15913 7.50004 1.66675 8.99242 1.66675 10.8334V15.8334C1.66675 17.6743 3.15913 19.1667 5.00008 19.1667H15.0001C16.841 19.1667 18.3334 17.6743 18.3334 15.8334V10.8334C18.3334 8.99242 16.841 7.50004 15.0001 7.50004V5.83337ZM6.66675 5.83337C6.66675 3.99242 8.15913 2.50004 10.0001 2.50004C11.841 2.50004 13.3334 3.99242 13.3334 5.83337V7.50004H6.66675V5.83337ZM3.33341 10.8334C3.33341 9.9129 4.07961 9.16671 5.00008 9.16671H15.0001C15.9206 9.16671 16.6667 9.9129 16.6667 10.8334V15.8334C16.6667 16.7538 15.9206 17.5 15.0001 17.5H5.00008C4.07961 17.5 3.33341 16.7538 3.33341 15.8334V10.8334Z" fill="#667185"/>
  <path d="M10.8334 12.5C10.8334 12.0398 10.4603 11.6667 10.0001 11.6667C9.53984 11.6667 9.16675 12.0398 9.16675 12.5V14.1667C9.16675 14.6269 9.53984 15 10.0001 15C10.4603 15 10.8334 14.6269 10.8334 14.1667V12.5Z" stroke="#667185"/>
  <path fill-rule="evenodd" clip-rule="evenodd" d="M15.0001 5.83337C15.0001 3.07195 12.7615 0.833374 10.0001 0.833374C7.23866 0.833374 5.00008 3.07195 5.00008 5.83337V7.50004C3.15913 7.50004 1.66675 8.99242 1.66675 10.8334V15.8334C1.66675 17.6743 3.15913 19.1667 5.00008 19.1667H15.0001C16.841 19.1667 18.3334 17.6743 18.3334 15.8334V10.8334C18.3334 8.99242 16.841 7.50004 15.0001 7.50004V5.83337ZM6.66675 5.83337C6.66675 3.99242 8.15913 2.50004 10.0001 2.50004C11.841 2.50004 13.3334 3.99242 13.3334 5.83337V7.50004H6.66675V5.83337ZM3.33341 10.8334C3.33341 9.9129 4.07961 9.16671 5.00008 9.16671H15.0001C15.9206 9.16671 16.6667 9.9129 16.6667 10.8334V15.8334C16.6667 16.7538 15.9206 17.5 15.0001 17.5H5.00008C4.07961 17.5 3.33341 16.7538 3.33341 15.8334V10.8334Z" stroke="#667185"/>
</svg>