<svg xmlns="http://www.w3.org/2000/svg" width="20" height="20" viewBox="0 0 20 20" fill="none">
  <path d="M10.8334 12.5C10.8334 12.0398 10.4603 11.6667 10.0001 11.6667C9.53984 11.6667 9.16675 12.0398 9.16675 12.5V14.1667C9.16675 14.6269 9.53984 15 10.0001 15C10.4603 15 10.8334 14.6269 10.8334 14.1667V12.5Z" fill="#667185"/>
  <path fill-rule="evenodd" clip-rule="evenodd" d="M15.0001 5.83334C15.0001 3.07192 12.7615 0.833344 10.0001 0.833344C7.23866 0.833344 5.00008 3.07192 5.00008 5.83334V7.50001C3.15913 7.50001 1.66675 8.99239 1.66675 10.8333V15.8333C1.66675 17.6743 3.15913 19.1667 5.00008 19.1667H15.0001C16.841 19.1667 18.3334 17.6743 18.3334 15.8333V10.8333C18.3334 8.99239 16.841 7.50001 15.0001 7.50001V5.83334ZM6.66675 5.83334C6.66675 3.99239 8.15913 2.50001 10.0001 2.50001C11.841 2.50001 13.3334 3.99239 13.3334 5.83334V7.50001H6.66675V5.83334ZM3.33341 10.8333C3.33341 9.91287 4.07961 9.16668 5.00008 9.16668H15.0001C15.9206 9.16668 16.6667 9.91287 16.6667 10.8333V15.8333C16.6667 16.7538 15.9206 17.5 15.0001 17.5H5.00008C4.07961 17.5 3.33341 16.7538 3.33341 15.8333V10.8333Z" fill="#667185"/>
  <path d="M10.8334 12.5C10.8334 12.0398 10.4603 11.6667 10.0001 11.6667C9.53984 11.6667 9.16675 12.0398 9.16675 12.5V14.1667C9.16675 14.6269 9.53984 15 10.0001 15C10.4603 15 10.8334 14.6269 10.8334 14.1667V12.5Z" stroke="#667185"/>
  <path fill-rule="evenodd" clip-rule="evenodd" d="M15.0001 5.83334C15.0001 3.07192 12.7615 0.833344 10.0001 0.833344C7.23866 0.833344 5.00008 3.07192 5.00008 5.83334V7.50001C3.15913 7.50001 1.66675 8.99239 1.66675 10.8333V15.8333C1.66675 17.6743 3.15913 19.1667 5.00008 19.1667H15.0001C16.841 19.1667 18.3334 17.6743 18.3334 15.8333V10.8333C18.3334 8.99239 16.841 7.50001 15.0001 7.50001V5.83334ZM6.66675 5.83334C6.66675 3.99239 8.15913 2.50001 10.0001 2.50001C11.841 2.50001 13.3334 3.99239 13.3334 5.83334V7.50001H6.66675V5.83334ZM3.33341 10.8333C3.33341 9.91287 4.07961 9.16668 5.00008 9.16668H15.0001C15.9206 9.16668 16.6667 9.91287 16.6667 10.8333V15.8333C16.6667 16.7538 15.9206 17.5 15.0001 17.5H5.00008C4.07961 17.5 3.33341 16.7538 3.33341 15.8333V10.8333Z" stroke="#667185"/>
</svg>