<svg width="20" height="20" viewBox="0 0 20 20" fill="none" xmlns="http://www.w3.org/2000/svg">
<path d="M1.91002 6.27505L9.85744 3.38507C9.94943 3.35162 10.0502 3.35162 10.1422 3.38507L18.0897 6.27505C18.4554 6.40803 18.4554 6.92523 18.0897 7.05821L10.1422 9.94818C10.0502 9.98163 9.94943 9.98163 9.85744 9.94818L1.91002 7.05821C1.54432 6.92523 1.54432 6.40803 1.91002 6.27505Z" fill="#101928"/>
<path d="M5.49178 9.13922L1.91002 10.4417C1.54432 10.5747 1.54432 11.0919 1.91002 11.2248L9.85744 14.1148C9.94943 14.1483 10.0502 14.1483 10.1422 14.1148L18.0897 11.2248C18.4554 11.0919 18.4554 10.5747 18.0897 10.4417L14.5078 9.1392L10.17 10.8017C10.0601 10.8438 9.93953 10.8438 9.82955 10.8017L5.49178 9.13922Z" fill="#101928"/>
<path d="M1.91002 13.775L4.37616 12.8782L9.82955 14.9683C9.93953 15.0104 10.0601 15.0104 10.17 14.9683L15.6235 12.8782L18.0897 13.775C18.4554 13.908 18.4554 14.4252 18.0897 14.5582L10.1422 17.4481C10.0502 17.4816 9.94943 17.4816 9.85744 17.4481L1.91002 14.5582C1.54432 14.4252 1.54432 13.908 1.91002 13.775Z" fill="#101928"/>
</svg>
