<svg xmlns="http://www.w3.org/2000/svg" width="21" height="20" viewBox="0 0 21 20" fill="none">
    <path d="M2.41002 6.27541L10.3574 3.38544C10.4494 3.35199 10.5502 3.35199 10.6422 3.38544L18.5897 6.27541C18.9554 6.40839 18.9554 6.92559 18.5897 7.05857L10.6422 9.94855C10.5502 9.98199 10.4494 9.98199 10.3574 9.94855L2.41002 7.05857C2.04432 6.92559 2.04432 6.40839 2.41002 6.27541Z" fill="#F2F4F7"/>
    <path d="M5.99178 9.13958L2.41002 10.442C2.04432 10.575 2.04432 11.0922 2.41002 11.2252L10.3574 14.1152C10.4494 14.1486 10.5502 14.1486 10.6422 14.1152L18.5897 11.2252C18.9554 11.0922 18.9554 10.575 18.5897 10.442L15.0078 9.13957L10.67 10.8021C10.5601 10.8442 10.4395 10.8442 10.3296 10.8021L5.99178 9.13958Z" fill="#F2F4F7"/>
    <path d="M2.41002 13.7754L4.87616 12.8786L10.3296 14.9686C10.4395 15.0108 10.5601 15.0108 10.67 14.9686L16.1235 12.8786L18.5897 13.7754C18.9554 13.9084 18.9554 14.4256 18.5897 14.5585L10.6422 17.4485C10.5502 17.482 10.4494 17.482 10.3574 17.4485L2.41002 14.5585C2.04432 14.4256 2.04432 13.9084 2.41002 13.7754Z" fill="#F2F4F7"/>
  </svg>