<svg width="20" height="20" viewBox="0 0 20 20" fill="none" xmlns="http://www.w3.org/2000/svg">
<path fill-rule="evenodd" clip-rule="evenodd" d="M9.16602 1.66602C5.02388 1.66602 1.66602 5.02388 1.66602 9.16602C1.66602 13.3082 5.02388 16.666 9.16602 16.666C10.9369 16.666 12.5644 16.0523 13.8474 15.0259L16.9101 18.0886C17.2355 18.414 17.7632 18.414 18.0886 18.0886C18.414 17.7632 18.414 17.2355 18.0886 16.9101L15.0259 13.8474C16.0523 12.5644 16.666 10.9369 16.666 9.16602C16.666 5.02388 13.3082 1.66602 9.16602 1.66602ZM3.33268 9.16602C3.33268 5.94436 5.94436 3.33268 9.16602 3.33268C12.3877 3.33268 14.9993 5.94436 14.9993 9.16602C14.9993 12.3877 12.3877 14.9993 9.16602 14.9993C5.94436 14.9993 3.33268 12.3877 3.33268 9.16602Z" fill="#E4E7EC"/>
</svg>
