<svg width="16" height="16" viewBox="0 0 16 16" fill="none" xmlns="http://www.w3.org/2000/svg">
<path d="M4.99998 2.66666C5.36817 2.66666 5.66665 2.36818 5.66665 2C5.66665 1.63181 5.36817 1.33333 4.99998 1.33333H3.99998C2.52722 1.33333 1.33331 2.52724 1.33331 3.99999V12C1.33331 13.4728 2.52722 14.6667 3.99998 14.6667H4.99998C5.36817 14.6667 5.66665 14.3682 5.66665 14C5.66665 13.6318 5.36817 13.3333 4.99998 13.3333H3.99998C3.2636 13.3333 2.66665 12.7364 2.66665 12L2.66665 3.99999C2.66665 3.26362 3.2636 2.66666 3.99998 2.66666H4.99998Z" fill="#475467"/>
<path d="M15.1381 8.4714C15.3984 8.21105 15.3984 7.78894 15.1381 7.52859L12.4714 4.86192C12.211 4.60157 11.7889 4.60157 11.5286 4.86192C11.2682 5.12227 11.2682 5.54438 11.5286 5.80473L13.0572 7.33333L5.33331 7.33333C4.96512 7.33333 4.66665 7.6318 4.66665 7.99999C4.66665 8.36818 4.96512 8.66666 5.33331 8.66666L13.0572 8.66666L11.5286 10.1953C11.2682 10.4556 11.2682 10.8777 11.5286 11.1381C11.7889 11.3984 12.211 11.3984 12.4714 11.1381L15.1381 8.4714Z" fill="#475467"/>
</svg>
